<svg width="28" height="28" viewBox="0 0 28 28" fill="none" xmlns="http://www.w3.org/2000/svg">
<path d="M17.15 26.5417H10.85C5.08666 26.5417 2.63666 24.08 2.63666 18.3284V13.09C2.63666 12.6117 3.03332 12.215 3.51166 12.215C3.98999 12.215 4.38666 12.6117 4.38666 13.09V18.3284C4.38666 23.1 6.07832 24.7917 10.85 24.7917H17.1383C21.91 24.7917 23.6017 23.1 23.6017 18.3284V13.09C23.6017 12.6117 23.9983 12.215 24.4767 12.215C24.955 12.215 25.3517 12.6117 25.3517 13.09V18.3284C25.3633 24.08 22.9017 26.5417 17.15 26.5417Z" fill="white"/>
<path d="M14 14.875C12.7167 14.875 11.55 14.3733 10.7217 13.4516C9.89335 12.53 9.50836 11.3283 9.63669 10.045L10.4184 2.25165C10.465 1.80831 10.8384 1.45831 11.2934 1.45831H16.7417C17.1967 1.45831 17.57 1.79665 17.6167 2.25165L18.3984 10.045C18.5267 11.3283 18.1417 12.53 17.3134 13.4516C16.45 14.3733 15.2834 14.875 14 14.875ZM12.075 3.20831L11.375 10.22C11.2934 11.0016 11.5267 11.7366 12.0167 12.2733C13.0084 13.37 14.9917 13.37 15.9834 12.2733C16.4734 11.725 16.7067 10.99 16.625 10.22L15.925 3.20831H12.075Z" fill="white"/>
<path d="M21.3617 14.875C18.9934 14.875 16.8817 12.9616 16.6367 10.605L15.82 2.42665C15.7967 2.18165 15.8784 1.93665 16.0417 1.74998C16.205 1.56331 16.4384 1.45831 16.695 1.45831H20.2534C23.6834 1.45831 25.2817 2.89331 25.76 6.41665L26.0867 9.65998C26.2267 11.0366 25.8067 12.3433 24.9084 13.335C24.01 14.3266 22.75 14.875 21.3617 14.875ZM17.6634 3.20831L18.3867 10.43C18.5384 11.8883 19.8917 13.125 21.3617 13.125C22.2484 13.125 23.0417 12.7866 23.6134 12.1683C24.1734 11.55 24.43 10.7216 24.3484 9.83498L24.0217 6.62665C23.66 3.98998 22.8084 3.20831 20.2534 3.20831H17.6634Z" fill="white"/>
<path d="M6.58002 14.875C5.19169 14.875 3.93169 14.3266 3.03336 13.335C2.13502 12.3433 1.71503 11.0366 1.85503 9.65998L2.17002 6.45165C2.66002 2.89331 4.25836 1.45831 7.68836 1.45831H11.2467C11.4917 1.45831 11.725 1.56331 11.9 1.74998C12.075 1.93665 12.145 2.18165 12.1217 2.42665L11.305 10.605C11.06 12.9616 8.94836 14.875 6.58002 14.875ZM7.68836 3.20831C5.13336 3.20831 4.28169 3.97831 3.90836 6.64998L3.59336 9.83498C3.50002 10.7216 3.76836 11.55 4.32836 12.1683C4.88836 12.7866 5.68169 13.125 6.58002 13.125C8.05002 13.125 9.41502 11.8883 9.55502 10.43L10.2784 3.20831H7.68836Z" fill="white"/>
<path d="M16.9166 26.5416H11.0833C10.605 26.5416 10.2083 26.145 10.2083 25.6666V22.75C10.2083 20.3 11.55 18.9583 14 18.9583C16.45 18.9583 17.7916 20.3 17.7916 22.75V25.6666C17.7916 26.145 17.395 26.5416 16.9166 26.5416ZM11.9583 24.7916H16.0416V22.75C16.0416 21.28 15.47 20.7083 14 20.7083C12.53 20.7083 11.9583 21.28 11.9583 22.75V24.7916Z" fill="white"/>
</svg>
