<svg width="138" height="144" viewBox="0 0 138 144" fill="none" xmlns="http://www.w3.org/2000/svg">
<g opacity="0.05">
<path d="M106.411 36.9899C106.655 36.8576 106.85 36.6505 106.969 36.3988C107.087 36.147 107.122 35.8637 107.069 35.5899L101.69 8.42943C101.562 7.79358 101.79 7.61566 102.375 7.89567C117.572 15.1525 128.806 26.3672 136.077 41.54C136.116 41.6224 136.132 41.7143 136.122 41.8052C136.112 41.896 136.077 41.9823 136.02 42.0542C135.964 42.1261 135.888 42.1808 135.802 42.2121C135.716 42.2434 135.623 42.25 135.533 42.2313L108.982 36.8587C108.557 36.7752 108.116 36.8295 107.725 37.0137C107.333 37.198 107.011 37.5024 106.806 37.8824L90.5294 68.1142C90.2811 68.5804 90.1888 69.1133 90.2662 69.6347C90.3436 70.156 90.5865 70.6382 90.9593 71.0105L114.948 94.9422C114.988 94.9835 115.014 95.0365 115.022 95.0935C115.03 95.1505 115.019 95.2085 114.992 95.2591C114.965 95.3098 114.922 95.3504 114.87 95.3752C114.818 95.4001 114.759 95.4077 114.703 95.3972L81.9042 88.4583C81.5255 88.3778 81.1305 88.423 80.779 88.5872C80.4275 88.7514 80.1387 89.0256 79.9563 89.3683L64.1011 119.224C63.9747 119.464 63.9295 119.739 63.9722 120.007C64.0148 120.275 64.1432 120.522 64.338 120.711L84.168 139.874C84.2192 139.924 84.2558 139.986 84.2736 140.055C84.2914 140.124 84.2898 140.196 84.2689 140.264C84.248 140.332 84.2087 140.393 84.1553 140.44C84.1018 140.487 84.0364 140.518 83.9662 140.53C67.4061 143.085 51.9136 140.3 37.4886 132.174C37.4186 132.133 37.3612 132.074 37.3228 132.003C37.2844 131.932 37.2665 131.852 37.271 131.771C37.2756 131.691 37.3024 131.613 37.3485 131.546C37.3947 131.48 37.4583 131.428 37.5325 131.395L62.3638 120.423C62.6738 120.283 62.9306 120.048 63.0964 119.752C63.2623 119.455 63.3284 119.114 63.2851 118.778L59.0383 86.262C58.9924 85.919 58.8357 85.6002 58.5919 85.3539C58.3481 85.1076 58.0305 84.9472 57.6871 84.897C47.0994 83.3278 36.4328 81.919 25.6871 80.6707C25.2835 80.624 24.9764 80.4898 24.7658 80.2682C24.7086 80.2088 24.6659 80.1371 24.641 80.0586C24.6162 79.9801 24.6099 79.8969 24.6226 79.8156C24.6354 79.7342 24.6668 79.6569 24.7145 79.5897C24.7622 79.5225 24.8248 79.4672 24.8975 79.4281L53.9229 64.1679C54.3981 63.9184 54.7787 63.5211 55.0068 63.0362C55.2348 62.5513 55.2979 62.0055 55.1864 61.4816L48.4126 29.6923C48.243 28.9048 47.7546 28.4789 46.9473 28.4148L19.6943 26.271C19.61 26.2642 19.5291 26.235 19.46 26.1865C19.3909 26.138 19.336 26.0719 19.3011 25.9952C19.2662 25.9184 19.2525 25.8337 19.2615 25.7499C19.2704 25.6661 19.3017 25.5862 19.3521 25.5185C27.0472 14.9395 47.816 2.88183 60.9687 2.51432C61.4191 2.50266 61.5419 2.69516 61.3372 3.09183L48.9303 27.2423C48.7473 27.6006 48.6826 28.0072 48.7457 28.4035C48.8088 28.7998 48.9963 29.1653 49.2813 29.4473L73.6212 53.729C73.9722 54.0731 74.3641 54.1285 74.797 53.8952L106.411 36.9899Z" fill="#D1232A"/>
<path d="M23.1075 81.3709L12.0958 106.449C12.0706 106.505 12.0302 106.554 11.9789 106.589C11.9276 106.624 11.8676 106.644 11.8056 106.646C11.7436 106.649 11.6821 106.634 11.6279 106.604C11.5738 106.574 11.5292 106.529 11.4991 106.475C3.4326 91.8215 0.621892 76.1558 3.067 59.478C3.11965 59.1046 3.27466 59.0521 3.53204 59.3205L22.739 79.2971C22.9992 79.5666 23.173 79.9076 23.2386 80.2767C23.3042 80.6459 23.2586 81.0267 23.1075 81.3709Z" fill="#D1232A"/>
</g>
</svg>
