<svg width="20" height="20" viewBox="0 0 20 20" fill="none" xmlns="http://www.w3.org/2000/svg">
<path d="M6.66663 4.79169C6.32496 4.79169 6.04163 4.50835 6.04163 4.16669V1.66669C6.04163 1.32502 6.32496 1.04169 6.66663 1.04169C7.00829 1.04169 7.29163 1.32502 7.29163 1.66669V4.16669C7.29163 4.50835 7.00829 4.79169 6.66663 4.79169Z" fill="#8E8EA9"/>
<path d="M13.3334 4.79169C12.9917 4.79169 12.7084 4.50835 12.7084 4.16669V1.66669C12.7084 1.32502 12.9917 1.04169 13.3334 1.04169C13.675 1.04169 13.9584 1.32502 13.9584 1.66669V4.16669C13.9584 4.50835 13.675 4.79169 13.3334 4.79169Z" fill="#8E8EA9"/>
<path d="M12.5 11.4583H5.83337C5.49171 11.4583 5.20837 11.175 5.20837 10.8333C5.20837 10.4916 5.49171 10.2083 5.83337 10.2083H12.5C12.8417 10.2083 13.125 10.4916 13.125 10.8333C13.125 11.175 12.8417 11.4583 12.5 11.4583Z" fill="#8E8EA9"/>
<path d="M10 14.7917H5.83337C5.49171 14.7917 5.20837 14.5084 5.20837 14.1667C5.20837 13.825 5.49171 13.5417 5.83337 13.5417H10C10.3417 13.5417 10.625 13.825 10.625 14.1667C10.625 14.5084 10.3417 14.7917 10 14.7917Z" fill="#8E8EA9"/>
<path d="M12.5 18.9584H7.5C2.81667 18.9584 1.875 16.75 1.875 13.1834V8.04169C1.875 4.09169 3.20833 2.48335 6.63333 2.29169H13.3333C13.3417 2.29169 13.3583 2.29169 13.3667 2.29169C16.7917 2.48335 18.125 4.09169 18.125 8.04169V13.1834C18.125 16.75 17.1833 18.9584 12.5 18.9584ZM6.66667 3.54169C4.33333 3.67502 3.125 4.40835 3.125 8.04169V13.1834C3.125 16.375 3.73333 17.7084 7.5 17.7084H12.5C16.2667 17.7084 16.875 16.375 16.875 13.1834V8.04169C16.875 4.41669 15.675 3.67502 13.3167 3.54169H6.66667Z" fill="#8E8EA9"/>
</svg>
