<svg width="218" height="300" viewBox="0 0 218 300" fill="none" xmlns="http://www.w3.org/2000/svg">
<g filter="url(#filter0_d_1_94)">
<path d="M109 0C121.584 23.5887 158.901 59.8489 205.961 59.8489C209.597 59.8489 213.292 59.6327 217.038 59.1769C227.682 191.576 147.322 271.434 109 300C70.6772 271.434 -9.68283 191.576 0.962396 59.1769C4.71079 59.6327 8.39972 59.8489 12.0382 59.8489C59.0944 59.8489 96.4174 23.5871 109 0Z" fill="#D1232A"/>
<path d="M109 14.1433C91.6579 38.0506 55.9372 67.4219 12.0385 67.4219C10.7016 67.4219 9.35887 67.3944 8.0156 67.3398C6.5274 94.7267 8.97978 121.425 15.3244 146.811C21.2401 170.482 30.6069 193.321 43.1629 214.694C53.4376 232.183 65.8274 248.689 79.988 263.756C91.0409 275.516 101.306 284.394 109.001 290.452C116.697 284.394 126.961 275.516 138.013 263.756C152.174 248.689 164.564 232.183 174.838 214.694C187.394 193.321 196.761 170.482 202.677 146.811C209.021 121.425 211.473 94.7267 209.985 67.3398C208.642 67.3944 207.3 67.4219 205.962 67.4219C162.063 67.4219 126.342 38.0506 109 14.1433Z" fill="white"/>
<path d="M109 26.5283C89.4664 49.7184 56.2098 73.7301 15.2923 74.9481C14.6047 99.0578 17.0805 122.552 22.685 144.977C28.4255 167.947 37.5167 190.114 49.7064 210.862C59.6954 227.865 71.7449 243.918 85.52 258.574C94.1488 267.755 102.272 275.12 109 280.706C115.729 275.119 123.851 267.755 132.481 258.574C146.255 243.918 158.304 227.865 168.294 210.862C180.483 190.114 189.575 167.947 195.314 144.977C200.92 122.552 203.395 99.0573 202.707 74.9481C161.79 73.7301 128.534 49.7179 109 26.5283Z" fill="#D1232A"/>
<path d="M50.0142 164.862H167.985V175.445H177.392C189.367 146.112 195.346 114.875 195.239 82.0722C158.944 78.7113 128.867 58.766 109 37.8228C89.1329 58.766 59.0549 78.7113 22.7597 82.0722C22.652 114.875 28.6329 146.112 40.6081 175.445H50.0142V164.862Z" fill="white"/>
<path d="M160.399 172.435H57.6011V175.444H160.399V172.435Z" fill="white"/>
<path d="M56.2503 207.034C65.9542 223.552 77.6634 239.15 91.052 253.395C97.455 260.208 103.565 265.985 109 270.748C114.435 265.985 120.544 260.208 126.947 253.395C140.336 239.15 152.045 223.552 161.75 207.034C166.358 199.19 170.486 191.182 174.146 183.024H43.8535C47.5148 191.182 51.6423 199.19 56.2503 207.034Z" fill="white"/>
<path d="M114.737 186.416H110.09V232.614H114.737V186.416Z" fill="black"/>
<path d="M150.49 192.471V205.245L144.87 213.959V186.416H140.224V232.069L156.209 207.282V192.471H150.49Z" fill="black"/>
<path d="M94.1587 231.384V220.781H87.3304V186.416H83.4429V227.124H88.1841L90.0806 231.384H94.1587Z" fill="black"/>
<path d="M103.263 224.915H97.8884V243.534L91.2231 236.844V235.013H88.8477V242.271L101.492 257.04H103.705V232.614H107.909V186.416H103.263V224.915Z" fill="black"/>
<path d="M76.1886 212.197L74.3733 211.16V186.416H70.0111V203.046L62.3774 191.669V189.951H67.1473L67.6166 186.416H53.6987L53.9334 188.859L78.2502 228.356H80.5502V186.416H76.1886V212.197Z" fill="black"/>
<path d="M98.2216 209.81H93.9985V213.878H98.2216V209.81Z" fill="black"/>
<path d="M117.171 223.525H123.351V242.965L114.737 251.564V240.756H110.09V266.68L128.282 248.519V215.826H121.09V209.072H128.282V203.203H117.171V223.525Z" fill="black"/>
<path d="M155.363 186.408H151.366L150.828 190.782H155.363V186.408Z" fill="black"/>
<path d="M134.284 228.06L130.598 232.355V245.82L138.931 236.111V203.203H134.284V228.06Z" fill="black"/>
<path d="M164.662 161.041C164.662 159.654 164.662 158.532 162.148 158.532C155.382 158.532 150.569 155.712 147.594 153.749C143.701 151.18 133.314 140.53 119.9 116.516C122.09 110.77 125.496 100.304 125.496 90.7955C125.496 90.7133 125.492 90.629 125.491 90.5458L130.588 89.7651L130.427 93.7621L149.648 84.5474L129.416 82.2752L130.139 85.2365L124.866 86.0442C123.314 79.7225 119.152 72.902 115.383 68.507C111.013 63.4117 106.586 59.2308 108.553 50.6543C108.553 50.6543 106.36 50.6543 103.116 55.8932L80.71 92.0729C79.3073 92.6681 77.3991 93.267 78.0176 91.8677C78.0176 91.8677 77.1007 91.9621 77.3853 88.9011C76.162 88.9011 75.1723 88.2068 75.1723 88.2068L75.5217 86.4619C76.3531 86.0623 77.0683 85.6361 77.3853 85.2402C75.8678 84.0407 73.9666 80.5064 72.138 79.2444C71.9591 77.8451 72.7072 76.6568 72.7072 76.6568L71.4425 74.5107C69.134 74.6623 66.7581 74.0691 64.1724 74.0691C60.354 74.0691 55.5506 76.5063 53.498 79.0239C49.2107 84.2824 49.388 93.0137 50.0501 103.286C47.44 105.119 43.0535 108.617 43.0535 111.418C43.0535 115.092 47.3275 115.38 58.5849 114.597C66.9211 121.99 70.576 128.936 69.8619 144.379C69.8619 144.379 72.0595 145.8 75.5626 147.135C75.9135 147.552 76.3398 148.046 76.8363 148.602C78.1185 153.878 72.5097 154.839 72.5097 157.502C72.5097 161.17 74.1482 159.647 74.8272 164.864H85.5346C84.3925 162.03 82.2688 160.489 82.2688 159.516C82.2688 158.685 83.2749 158.011 87.0658 157.984C92.7266 162.16 99.8305 165.793 107.419 165.793C113.009 165.793 115.943 162.548 115.943 158.539C115.943 153.698 110.465 145.717 107.43 141.667C111.075 137.602 113.453 132.83 113.453 132.83L115.255 133.398C115.255 133.398 120.186 143.055 132.325 150.723C133.439 154.543 135.929 157.635 135.929 157.635C136.594 161.607 138.334 164.023 139.038 164.865H159.068C162.361 164.223 164.662 162.754 164.662 161.041ZM83.1316 92.2154L104.38 58.7967C104.38 58.7967 106.814 61.1676 106.814 64.0981C111.747 69.0227 115.37 75.8257 117.328 83.7169C111.705 87.8432 106.628 88.5009 99.7164 89.4487C95.1174 90.0794 92.0178 93.8707 83.2139 93.4085L83.1316 92.2154ZM90.0926 124.814C86.3543 121.77 84.5407 117.557 83.7103 106.162L106.274 117.38C104.761 120.642 95.6903 124.814 90.0926 124.814ZM116.615 115.285C114.948 115.812 112.43 116.389 109.484 116.345L87.275 105.304L86.0289 102.815C92.7139 101.219 97.3505 101.095 100.808 99.5681C106.256 97.1628 109.809 94.8354 118.948 95.5456C119.168 101.851 118.437 108.528 116.615 115.285Z" fill="black"/>
<path d="M61.1057 98.3694C61.1062 95.1436 60.6756 89.1871 60.6746 85.6004C60.6746 84.8753 60.6926 84.2451 60.7372 83.7357C60.7951 83.2136 60.82 82.8611 61.0409 82.471C61.6111 81.5763 62.6634 80.7426 63.9345 79.947C65.205 79.1599 66.6895 78.4459 68.1007 77.9514L68.5409 79.2018C67.2327 79.6597 65.8151 80.3403 64.6353 81.0728C63.4646 81.7915 62.5227 82.5972 62.175 83.1617C62.1734 83.1649 62.1702 83.1728 62.166 83.185C62.1569 83.2131 62.1436 83.2603 62.1304 83.3223C62.1044 83.4474 62.0789 83.6297 62.0598 83.8512C62.0205 84.2954 62.0029 84.8981 62.0029 85.6009C62.0024 89.1055 62.433 95.0572 62.4341 98.37H61.1057V98.3694Z" fill="white"/>
<path d="M79.2456 111.04C78.3632 110.46 77.5456 110.136 76.8246 109.969C75.7192 109.722 75.0438 109.749 74.2941 109.522C73.7127 109.353 72.9721 109.036 71.8932 108.288L70.7241 111.151C71.589 111.701 72.3461 112.064 73.0395 112.302C73.888 112.596 74.6132 112.689 75.1696 112.761C76.0218 112.878 76.4327 112.913 77.2849 113.392C78.0346 113.822 79.1134 114.686 80.6839 116.368L80.9345 112.361C80.325 111.817 79.7681 111.383 79.2456 111.04Z" fill="white"/>
<path d="M97.2368 134.408C97.2368 133.209 88.323 127.024 88.323 127.024C88.323 127.024 86.9951 127.718 86.9951 129.422C86.9951 129.422 93.507 135.039 96.3523 135.039C96.8408 135.039 97.2368 134.757 97.2368 134.408Z" fill="white"/>
<path d="M86.8614 147.489C86.8561 146.979 87.3494 146.676 86.4138 146.686C85.37 146.697 85.4056 146.125 84.6957 145.444C83.207 146.689 85.8123 147.795 86.8614 147.489Z" fill="#B3B3B3"/>
<path d="M81.0483 147.033C81.5606 146.262 80.1961 144.821 79.3381 145.442C79.6248 146.255 80.1675 146.812 81.0483 147.033Z" fill="#B3B3B3"/>
<path d="M90.9649 145.899C92.2147 146.07 90.3039 143.89 90.281 143.855C88.2598 144.653 90.5858 145.261 90.9649 145.899Z" fill="#B3B3B3"/>
<path d="M94.9541 143.626C95.767 142.394 94.5777 140.641 93.1304 141.013C93.365 142.105 94.4365 142.54 94.9541 143.626Z" fill="#B3B3B3"/>
<path d="M75.4627 144.193C74.9625 143.252 74.2484 142.778 74.4369 141.58C75.1839 141.382 75.2067 142.438 75.4998 142.793C75.6262 143.04 75.7658 143.28 75.9187 143.512C76.3897 143.595 77.1064 143.612 77.4006 144.08C78.6668 144.08 79.9337 144.08 81.1999 144.08C82.566 144.08 83.4166 143.736 84.6202 143.594C85.6109 143.477 86.5034 143.049 87.431 142.717C88.2736 142.414 89.1374 142.453 89.8977 142.04C90.8624 141.516 91.3466 141.481 92.2184 140.672C92.3342 139.956 92.3602 138.753 93.2442 138.513C93.9907 138.997 93.25 139.309 94.6119 139.309C94.4037 138.483 93.73 137.89 93.5861 137.037C93.2107 136.98 93.2782 137.435 92.9023 137.378C92.5194 136.683 92.0575 136.035 91.5399 135.434C90.3437 134.046 88.8741 132.932 87.4002 131.857C86.2327 131.005 84.2507 128.781 82.8894 129.201C81.3783 129.667 78.7311 129.758 77.4898 130.585C76.6079 131.171 76.1083 132.256 75.0772 132.634C74.3615 132.897 73.9415 132.48 73.3824 133.138C72.8435 133.771 72.86 134.635 72.9859 135.406C73.1441 136.371 73.2688 138.765 74.2091 139.197C74.0451 139.69 74.2866 139.955 74.5314 140.332C74.8887 140.882 74.0318 141.115 73.9814 140.218C73.3336 140.469 72.9683 140.614 72.9545 139.765C72.9439 139.365 72.7305 139.259 72.3142 139.448C71.3251 139.311 71.958 140.583 72.0939 141.05C72.5176 142.507 72.9991 146.221 75.4627 144.193Z" fill="white"/>
</g>
<defs>
<filter id="filter0_d_1_94" x="-15" y="-15" width="258" height="340" filterUnits="userSpaceOnUse" color-interpolation-filters="sRGB">
<feFlood flood-opacity="0" result="BackgroundImageFix"/>
<feColorMatrix in="SourceAlpha" type="matrix" values="0 0 0 0 0 0 0 0 0 0 0 0 0 0 0 0 0 0 127 0" result="hardAlpha"/>
<feOffset dx="5" dy="5"/>
<feGaussianBlur stdDeviation="10"/>
<feComposite in2="hardAlpha" operator="out"/>
<feColorMatrix type="matrix" values="0 0 0 0 0 0 0 0 0 0 0 0 0 0 0 0 0 0 0.15 0"/>
<feBlend mode="normal" in2="BackgroundImageFix" result="effect1_dropShadow_1_94"/>
<feBlend mode="normal" in="SourceGraphic" in2="effect1_dropShadow_1_94" result="shape"/>
</filter>
</defs>
</svg>
