<svg width="24" height="24" viewBox="0 0 24 24" fill="none" xmlns="http://www.w3.org/2000/svg">
<path fill-rule="evenodd" clip-rule="evenodd" d="M20.8797 17.2654C20.7413 17.5206 20.5047 17.6615 20.2144 17.6615H3.78584C3.49545 17.6615 3.25883 17.5206 3.11998 17.2654C2.98137 17.0105 2.99192 16.7356 3.14956 16.4915L4.03072 15.1299C4.26551 14.7667 4.37975 14.3802 4.37975 13.9481V9.92358C4.37975 5.72105 7.79811 2.30292 12.0001 2.30292C16.2016 2.30292 19.6205 5.721 19.6205 9.92358V13.9481C19.6205 14.3802 19.7345 14.7667 19.969 15.1294L20.8507 16.4915C21.0083 16.7356 21.0189 17.0105 20.8797 17.2654ZM13.9895 19.708C13.9895 20.8052 13.097 21.6974 12.0001 21.6974C10.9029 21.6974 10.0102 20.8051 10.0102 19.708V19.0784H13.9895V19.708ZM22.0399 15.722L21.1587 14.3599C21.0726 14.2267 21.0373 14.107 21.0373 13.9481V9.92358C21.0373 7.51884 20.0947 5.25295 18.3834 3.54005C16.6715 1.82972 14.4049 0.885797 12.0001 0.885797C9.5953 0.885797 7.32814 1.82972 5.61678 3.54005C3.90542 5.25295 2.96281 7.51884 2.96281 9.92358V13.9481C2.96281 14.1071 2.92733 14.2267 2.84089 14.3599L1.95973 15.722C1.5199 16.4017 1.48854 17.232 1.87564 17.9431C2.26222 18.6537 2.97645 19.0784 3.78579 19.0784H8.59325V19.708C8.59325 21.5863 10.1217 23.1142 12 23.1142C13.8783 23.1142 15.4066 21.5863 15.4066 19.708V19.0784H20.2144C21.0237 19.0784 21.7375 18.6537 22.1245 17.9426C22.5116 17.232 22.4797 16.4018 22.0399 15.722Z" fill="#101010"/>
</svg>
