<svg width="138" height="164" viewBox="0 0 138 164" fill="none" xmlns="http://www.w3.org/2000/svg">
<path d="M102.903 40.6963C103.191 40.5401 103.422 40.2957 103.561 39.9985C103.701 39.7014 103.743 39.3669 103.68 39.0437L97.3289 6.9829C97.177 6.23234 97.4464 6.02232 98.137 6.35284C116.081 14.9189 129.345 28.1571 137.93 46.0673C137.977 46.1647 137.995 46.2731 137.983 46.3803C137.972 46.4876 137.93 46.5894 137.863 46.6743C137.796 46.7592 137.707 46.8238 137.605 46.8607C137.504 46.8976 137.394 46.9055 137.288 46.8833L105.938 40.5414C105.437 40.4428 104.917 40.507 104.454 40.7244C103.992 40.9419 103.611 41.3013 103.369 41.7499L84.151 77.4361C83.8578 77.9864 83.7489 78.6155 83.8403 79.2309C83.9316 79.8463 84.2185 80.4155 84.6586 80.8549L112.983 109.104C113.03 109.153 113.061 109.216 113.07 109.283C113.079 109.35 113.067 109.419 113.035 109.479C113.002 109.538 112.952 109.586 112.89 109.616C112.829 109.645 112.76 109.654 112.693 109.641L73.967 101.451C73.5199 101.356 73.0535 101.409 72.6385 101.603C72.2235 101.797 71.8825 102.12 71.6671 102.525L52.9465 137.767C52.7972 138.051 52.7438 138.375 52.7942 138.691C52.8446 139.008 52.9961 139.299 53.2262 139.523L76.6399 162.143C76.7004 162.201 76.7436 162.275 76.7647 162.356C76.7857 162.438 76.7838 162.523 76.7591 162.603C76.7344 162.684 76.688 162.755 76.6249 162.811C76.5618 162.866 76.4845 162.903 76.4016 162.918C56.8488 165.934 38.5563 162.646 21.5244 153.054C21.4417 153.006 21.374 152.936 21.3286 152.852C21.2833 152.768 21.2621 152.673 21.2675 152.578C21.2729 152.483 21.3045 152.391 21.359 152.313C21.4135 152.235 21.4887 152.173 21.5762 152.134L50.8952 139.182C51.2612 139.017 51.5644 138.74 51.7602 138.39C51.956 138.04 52.0341 137.637 51.983 137.24L46.9687 98.8582C46.9145 98.4532 46.7295 98.0769 46.4416 97.7862C46.1537 97.4954 45.7787 97.3061 45.3733 97.2468C32.8721 95.3945 20.2777 93.7316 7.59013 92.258C7.11356 92.2029 6.75096 92.0445 6.50232 91.7829C6.43471 91.7129 6.38427 91.6282 6.35494 91.5355C6.3256 91.4428 6.31817 91.3447 6.33322 91.2486C6.34826 91.1526 6.38539 91.0614 6.44168 90.982C6.49798 90.9027 6.57192 90.8374 6.65772 90.7913L40.9288 72.7778C41.4899 72.4833 41.9393 72.0143 42.2085 71.4419C42.4778 70.8696 42.5523 70.2252 42.4206 69.6068L34.4227 32.082C34.2224 31.1524 33.6457 30.6498 32.6925 30.574L0.514209 28.0435C0.41473 28.0354 0.31922 28.001 0.237585 27.9437C0.155951 27.8865 0.0911626 27.8085 0.0499422 27.7179C0.00872177 27.6273 -0.00743126 27.5273 0.00315786 27.4284C0.013747 27.3294 0.0506923 27.2351 0.110164 27.1552C9.19593 14.6676 33.7182 0.434403 49.2479 0.000590221C49.7797 -0.0131816 49.9248 0.214053 49.683 0.682295L35.0339 29.19C34.8178 29.6129 34.7415 30.0929 34.816 30.5607C34.8904 31.0285 35.1119 31.4599 35.4483 31.7928L64.1871 60.4554C64.6015 60.8617 65.0643 60.9271 65.5754 60.6517L102.903 40.6963Z" fill="#D1232A"/>
</svg>
