<svg width="20" height="20" viewBox="0 0 20 20" fill="none" xmlns="http://www.w3.org/2000/svg">
<path d="M14.825 18.9583H5.17496C2.89163 18.9583 1.04163 17.1 1.04163 14.8167V8.64167C1.04163 7.50833 1.74163 6.08333 2.64163 5.38333L7.13329 1.88333C8.48329 0.833332 10.6416 0.783332 12.0416 1.76667L17.1916 5.375C18.1833 6.06667 18.9583 7.55 18.9583 8.75833V14.825C18.9583 17.1 17.1083 18.9583 14.825 18.9583ZM7.89996 2.86667L3.40829 6.36667C2.81663 6.83333 2.29163 7.89167 2.29163 8.64167V14.8167C2.29163 16.4083 3.58329 17.7083 5.17496 17.7083H14.825C16.4166 17.7083 17.7083 16.4167 17.7083 14.825V8.75833C17.7083 7.95833 17.1333 6.85 16.475 6.4L11.325 2.79167C10.375 2.125 8.80829 2.15833 7.89996 2.86667Z" fill="#D1232A"/>
<path d="M10 15.625C9.65833 15.625 9.375 15.3417 9.375 15V12.5C9.375 12.1583 9.65833 11.875 10 11.875C10.3417 11.875 10.625 12.1583 10.625 12.5V15C10.625 15.3417 10.3417 15.625 10 15.625Z" fill="#D1232A"/>
</svg>
