<svg width="272" height="56" viewBox="0 0 272 56" fill="none" xmlns="http://www.w3.org/2000/svg">
<g opacity="0.25">
<mask id="path-1-outside-1_1_230" maskUnits="userSpaceOnUse" x="-0.5" y="-0.5" width="273" height="57" fill="black">
<rect fill="white" x="-0.5" y="-0.5" width="273" height="57"/>
<path d="M22.1124 13.772H23.0767C24.3247 13.772 25.2134 14.1094 25.7428 14.7843C26.3101 15.4591 26.5937 16.5089 26.5937 17.9335V19.002C26.5937 20.5017 26.329 21.514 25.7995 22.0389C25.2701 22.5637 24.4192 22.8262 23.2469 22.8262H16.5533C16.1751 22.8262 15.986 22.6387 15.986 22.2638V20.5767C15.986 20.2018 16.1751 20.0143 16.5533 20.0143H22.2826C22.7742 20.0143 23.0767 19.9206 23.1902 19.7331C23.3414 19.5457 23.4171 19.2457 23.4171 18.8333C23.4171 17.8211 23.2847 17.2025 23.02 16.9775C22.7931 16.7151 22.2069 16.5838 21.2615 16.5838H18.5954C18.066 16.5838 17.8013 16.3214 17.8013 15.7965V14.5031C17.8013 14.3156 17.8391 14.1469 17.9147 13.9969C18.0282 13.847 18.1227 13.7345 18.1983 13.6595L22.5662 8.54192C22.8687 8.16701 23.1713 8.12951 23.4738 8.42945L24.8919 9.66667C25.081 9.85412 25.1567 10.0041 25.1188 10.1166C25.081 10.229 25.0054 10.379 24.8919 10.5665L22.1124 13.772ZM42.2499 29.6871C42.2499 30.8119 42.6659 31.6742 43.4979 32.274C44.3299 32.8739 45.4644 33.1738 46.9014 33.1738H47.8657C48.6221 33.1738 49.1893 33.38 49.5675 33.7924C49.9457 34.2048 50.1348 34.8984 50.1348 35.8732C50.1348 36.9605 49.9457 37.7103 49.5675 38.1227C49.2271 38.5351 48.6599 38.7413 47.8657 38.7413C46.4287 38.7413 45.1618 38.5726 44.0651 38.2352C42.9684 37.8603 42.0987 37.0729 41.4558 35.8732C40.9263 36.9605 40.1322 37.7103 39.0733 38.1227C38.0144 38.5351 36.5774 38.7413 34.7622 38.7413H7.13688C4.75441 38.7413 3.05264 38.1789 2.03159 37.0542C1.01053 35.892 0.5 34.0924 0.5 31.6554V19.5644C0.5 19.1895 0.689085 19.002 1.06725 19.002H6.28599C6.66416 19.002 6.85325 19.1895 6.85325 19.5644V30.1933C6.85325 31.5429 7.21251 32.3865 7.93103 32.7239C8.64955 33.0239 9.91642 33.1738 11.7316 33.1738H33.0604C33.7411 33.1738 34.2516 33.0801 34.592 32.8926C34.9702 32.7052 35.2538 32.4052 35.4429 31.9928C35.632 31.5804 35.7454 31.0368 35.7832 30.362C35.821 29.6871 35.8399 28.8623 35.8399 27.8875V1.06237C35.8399 0.687457 36.029 0.5 36.4072 0.5H41.6827C42.0608 0.5 42.2499 0.687457 42.2499 1.06237V29.6871ZM47.8551 38.7413C47.0988 38.7413 46.5315 38.5726 46.1533 38.2352C45.7752 37.8603 45.5861 37.1292 45.5861 36.0419C45.5861 34.9922 45.7752 34.2611 46.1533 33.8487C46.4937 33.3988 47.0609 33.1738 47.8551 33.1738H50.6346C51.5801 33.1738 52.2608 32.9676 52.6768 32.5552C53.1306 32.1053 53.3575 31.318 53.3575 30.1933V1.06237C53.3575 0.687457 53.5466 0.5 53.9247 0.5H59.2002C59.5784 0.5 59.7674 0.687457 59.7674 1.06237V31.6554C59.7674 34.0924 59.2569 35.892 58.2359 37.0542C57.2148 38.1789 55.513 38.7413 53.1306 38.7413H47.8551ZM67.1639 1.06237C67.1639 0.687457 67.353 0.5 67.7312 0.5H73.0066C73.3848 0.5 73.5739 0.687457 73.5739 1.06237V30.1933C73.5739 31.318 73.7819 32.1053 74.1979 32.5552C74.6517 32.9676 75.3513 33.1738 76.2967 33.1738H78.2821C79.0384 33.1738 79.6057 33.3988 79.9839 33.8487C80.362 34.2611 80.5511 34.9922 80.5511 36.0419C80.5511 37.2042 80.362 37.954 79.9839 38.2914C79.6435 38.5913 79.0762 38.7413 78.2821 38.7413H73.8008C71.4183 38.7413 69.7166 38.1789 68.6955 37.0542C67.6744 35.892 67.1639 34.0924 67.1639 31.6554V1.06237ZM95.6255 39.135C93.7346 39.135 92.0328 38.8913 90.5202 38.4039C89.0075 37.879 87.7406 37.0354 86.7196 35.8732C86.3414 36.4731 85.8876 36.9605 85.3581 37.3354C84.8287 37.7103 84.2804 38.0102 83.7131 38.2352C83.1459 38.4226 82.5597 38.5538 81.9546 38.6288C81.3495 38.7038 80.7823 38.7413 80.2529 38.7413H78.2675C77.5111 38.7413 76.9439 38.5351 76.5657 38.1227C76.1875 37.6728 75.9985 36.9417 75.9985 35.9294C75.9985 34.8422 76.1875 34.1111 76.5657 33.7362C76.9061 33.3613 77.4733 33.1738 78.2675 33.1738H80.4798C80.8957 33.1738 81.3117 33.0988 81.7277 32.9489C82.1437 32.7614 82.5219 32.4802 82.8622 32.1053C83.2026 31.6929 83.4862 31.168 83.7131 30.5307C83.94 29.8558 84.0535 29.031 84.0535 28.0562C84.0156 27.7563 83.9967 27.4751 83.9967 27.2127C83.9967 26.9502 83.9967 26.6691 83.9967 26.3691C84.0346 24.1946 84.3371 22.3575 84.9043 20.8579C85.5094 19.3207 86.3225 18.0835 87.3435 17.1462C88.4024 16.1714 89.6315 15.4778 91.0307 15.0654C92.4299 14.6155 93.9615 14.3906 95.6255 14.3906C97.2894 14.3906 98.8399 14.6155 100.277 15.0654C101.714 15.5153 102.943 16.2277 103.964 17.2025C105.023 18.1772 105.836 19.4707 106.403 21.0828C107.008 22.695 107.311 24.6445 107.311 26.9315C107.311 29.1435 107.027 31.0181 106.46 32.5552C105.893 34.0924 105.099 35.3483 104.078 36.3231C103.056 37.2979 101.827 38.0102 100.39 38.4601C98.9533 38.91 97.365 39.135 95.6255 39.135ZM95.6255 20.0143C93.8102 20.0143 92.4677 20.5954 91.5979 21.7577C90.7281 22.9199 90.2933 24.607 90.2933 26.819C90.2933 29.2185 90.7281 30.9431 91.5979 31.9928C92.4677 33.0426 93.8102 33.5675 95.6255 33.5675C97.4785 33.5675 98.8399 33.0426 99.7097 31.9928C100.579 30.9056 101.014 29.181 101.014 26.819C101.014 22.2825 99.2181 20.0143 95.6255 20.0143ZM117.15 9.77914C116.772 9.77914 116.583 9.59168 116.583 9.21677V4.38037C116.583 4.00545 116.772 3.81799 117.15 3.81799H122.596C122.974 3.81799 123.163 4.00545 123.163 4.38037V9.21677C123.163 9.59168 122.974 9.77914 122.596 9.77914H117.15ZM116.64 15.9652C116.64 15.5903 116.829 15.4029 117.207 15.4029H122.482C122.86 15.4029 123.05 15.5903 123.05 15.9652V29.6871C123.05 30.8119 123.466 31.6742 124.298 32.274C125.167 32.8739 126.321 33.1738 127.758 33.1738H128.722C129.478 33.1738 130.046 33.38 130.424 33.7924C130.802 34.2048 130.991 34.8984 130.991 35.8732C130.991 36.9605 130.802 37.7103 130.424 38.1227C130.083 38.5351 129.516 38.7413 128.722 38.7413C127.436 38.7413 126.321 38.6288 125.375 38.4039C124.468 38.1789 123.692 37.6728 123.05 36.8855V37.954C123.05 39.9785 122.879 41.7406 122.539 43.2403C122.199 44.7774 121.631 46.0521 120.837 47.0644C120.081 48.0767 119.06 48.8265 117.774 49.3139C116.488 49.8388 114.9 50.1012 113.009 50.1012H110.91C110.532 50.1012 110.343 49.9138 110.343 49.5389V45.0399C110.343 44.665 110.532 44.4775 110.91 44.4775H112.158C113.255 44.4775 114.106 44.29 114.711 43.9151C115.316 43.5402 115.751 42.9778 116.016 42.228C116.318 41.5157 116.488 40.6346 116.526 39.5849C116.602 38.5726 116.64 37.3916 116.64 36.0419V15.9652ZM128.733 38.7413C127.977 38.7413 127.41 38.5726 127.031 38.2352C126.653 37.8603 126.464 37.1292 126.464 36.0419C126.464 34.9922 126.653 34.2611 127.031 33.8487C127.372 33.3988 127.939 33.1738 128.733 33.1738H131.513C132.458 33.1738 133.139 32.9676 133.555 32.5552C134.009 32.1053 134.236 31.318 134.236 30.1933V1.06237C134.236 0.687457 134.425 0.5 134.803 0.5H140.078C140.456 0.5 140.646 0.687457 140.646 1.06237V31.6554C140.646 34.0924 140.135 35.892 139.114 37.0542C138.093 38.1789 136.391 38.7413 134.009 38.7413H128.733ZM154.452 38.1789C154.452 38.5538 154.263 38.7413 153.885 38.7413H148.609C148.231 38.7413 148.042 38.5538 148.042 38.1789V1.06237C148.042 0.687457 148.231 0.5 148.609 0.5H153.885C154.263 0.5 154.452 0.687457 154.452 1.06237V38.1789ZM179.95 32.7802C179.95 34.2048 180.214 35.4046 180.744 36.3793C181.273 37.3166 181.954 38.0665 182.786 38.6288C183.618 39.1912 184.563 39.5849 185.622 39.8098C186.681 40.0348 187.759 40.1472 188.855 40.1472H200.144C202.337 40.1472 203.831 39.8473 204.625 39.2474C205.457 38.6851 205.873 37.9727 205.873 37.1104C205.873 36.5481 205.552 35.9857 204.909 35.4233C204.304 34.8609 203.51 34.2798 202.526 33.68C201.581 33.0426 200.56 32.3678 199.463 31.6554C198.366 30.9431 197.326 30.137 196.343 29.2372C195.398 28.2999 194.604 27.2689 193.961 26.1442C193.356 24.9819 193.053 23.651 193.053 22.1513C193.053 20.8016 193.318 19.5457 193.847 18.3834C194.377 17.1837 195.114 16.1527 196.06 15.2904C197.043 14.3906 198.215 13.697 199.577 13.2096C200.938 12.6847 202.47 12.4223 204.171 12.4223C206.781 12.4223 208.861 12.8347 210.411 13.6595C211.999 14.4468 213.342 15.4966 214.439 16.8088C214.666 17.0712 214.609 17.3337 214.268 17.5961L211.205 20.5767C210.903 20.8016 210.638 20.7829 210.411 20.5205C209.617 19.7331 208.766 19.1333 207.858 18.7209C206.951 18.271 205.835 18.046 204.512 18.046C203.226 18.046 202.073 18.4022 201.051 19.1145C200.068 19.7894 199.577 20.8016 199.577 22.1513C199.577 23.0511 199.898 23.8759 200.541 24.6258C201.184 25.3756 201.978 26.1067 202.923 26.819C203.907 27.5314 204.947 28.2624 206.043 29.0123C207.178 29.7621 208.218 30.5682 209.163 31.4305C210.146 32.2553 210.959 33.1738 211.602 34.1861C212.245 35.1609 212.567 36.2856 212.567 37.5603C212.567 38.6851 212.359 39.7536 211.943 40.7658C211.527 41.7781 210.865 42.6592 209.957 43.409C209.05 44.1963 207.877 44.7962 206.44 45.2086C205.003 45.6585 203.283 45.8834 201.278 45.8834H188.061C183.145 45.8834 179.477 44.7587 177.057 42.5092C174.674 40.2597 173.483 37.2042 173.483 33.3425C173.483 31.318 173.804 29.2935 174.447 27.2689C175.09 25.2444 175.884 23.501 176.83 22.0389C177.019 21.7014 177.302 21.6639 177.681 21.9264L182.275 23.726C182.464 23.801 182.559 23.9134 182.559 24.0634C182.597 24.1759 182.578 24.3071 182.502 24.4571C181.897 25.5068 181.311 26.744 180.744 28.1687C180.214 29.5559 179.95 31.093 179.95 32.7802ZM194.812 55.5C194.433 55.5 194.244 55.3125 194.244 54.9376V50.1012C194.244 49.7263 194.433 49.5389 194.812 49.5389H199.577C199.955 49.5389 200.144 49.7263 200.144 50.1012V54.9376C200.144 55.3125 199.955 55.5 199.577 55.5H194.812ZM187.437 55.5C187.059 55.5 186.87 55.3125 186.87 54.9376V50.1012C186.87 49.7263 187.059 49.5389 187.437 49.5389H192.202C192.58 49.5389 192.77 49.7263 192.77 50.1012V54.9376C192.77 55.3125 192.58 55.5 192.202 55.5H187.437ZM241.439 29.1247C241.439 30.9993 241.269 32.5552 240.929 33.7924C240.589 34.9922 240.078 35.9669 239.397 36.7168C238.717 37.4666 237.847 37.9915 236.788 38.2914C235.729 38.5913 234.481 38.7413 233.044 38.7413H219.884C219.506 38.7413 219.317 38.5538 219.317 38.1789V33.7362C219.317 33.3613 219.506 33.1738 219.884 33.1738H230.435C231.456 33.1738 232.269 33.0988 232.874 32.9489C233.479 32.7989 233.933 32.5552 234.235 32.2178C234.576 31.8429 234.784 31.3742 234.859 30.8119C234.973 30.2495 235.03 29.5559 235.03 28.7311V24.9632C235.03 21.6639 233.101 20.0143 229.244 20.0143H222.436C222.058 20.0143 221.869 19.8269 221.869 19.4519V14.953C221.869 14.578 222.058 14.3906 222.436 14.3906H231.513C234.538 14.3906 236.939 15.2154 238.717 16.865C240.532 18.4772 241.439 21.0078 241.439 24.4571V29.1247ZM248.087 1.06237C248.087 0.687457 248.276 0.5 248.654 0.5H253.93C254.308 0.5 254.497 0.687457 254.497 1.06237V30.1933C254.497 31.318 254.705 32.1053 255.121 32.5552C255.575 32.9676 256.274 33.1738 257.22 33.1738H259.205C259.962 33.1738 260.529 33.3988 260.907 33.8487C261.285 34.2611 261.474 34.9922 261.474 36.0419C261.474 37.2042 261.285 37.954 260.907 38.2914C260.567 38.5913 259.999 38.7413 259.205 38.7413H254.724C252.341 38.7413 250.64 38.1789 249.619 37.0542C248.598 35.892 248.087 34.0924 248.087 31.6554V1.06237ZM265.487 9.77914C265.109 9.77914 264.92 9.59168 264.92 9.21677V4.38037C264.92 4.00545 265.109 3.81799 265.487 3.81799H270.933C271.311 3.81799 271.5 4.00545 271.5 4.38037V9.21677C271.5 9.59168 271.311 9.77914 270.933 9.77914H265.487ZM259.474 38.7413C258.718 38.7413 258.151 38.6101 257.772 38.3476C257.394 38.0852 257.205 37.5603 257.205 36.773C257.205 35.8357 257.394 35.0109 257.772 34.2986C258.113 33.5487 258.68 33.1738 259.474 33.1738H262.254C263.199 33.1738 263.88 32.9676 264.296 32.5552C264.75 32.1053 264.977 31.318 264.977 30.1933V15.9652C264.977 15.5903 265.166 15.4029 265.544 15.4029H270.819C271.197 15.4029 271.387 15.5903 271.387 15.9652V31.6554C271.387 34.0924 270.876 35.892 269.855 37.0542C268.834 38.1789 267.132 38.7413 264.75 38.7413H259.474Z"/>
</mask>
<path d="M22.1124 13.772H23.0767C24.3247 13.772 25.2134 14.1094 25.7428 14.7843C26.3101 15.4591 26.5937 16.5089 26.5937 17.9335V19.002C26.5937 20.5017 26.329 21.514 25.7995 22.0389C25.2701 22.5637 24.4192 22.8262 23.2469 22.8262H16.5533C16.1751 22.8262 15.986 22.6387 15.986 22.2638V20.5767C15.986 20.2018 16.1751 20.0143 16.5533 20.0143H22.2826C22.7742 20.0143 23.0767 19.9206 23.1902 19.7331C23.3414 19.5457 23.4171 19.2457 23.4171 18.8333C23.4171 17.8211 23.2847 17.2025 23.02 16.9775C22.7931 16.7151 22.2069 16.5838 21.2615 16.5838H18.5954C18.066 16.5838 17.8013 16.3214 17.8013 15.7965V14.5031C17.8013 14.3156 17.8391 14.1469 17.9147 13.9969C18.0282 13.847 18.1227 13.7345 18.1983 13.6595L22.5662 8.54192C22.8687 8.16701 23.1713 8.12951 23.4738 8.42945L24.8919 9.66667C25.081 9.85412 25.1567 10.0041 25.1188 10.1166C25.081 10.229 25.0054 10.379 24.8919 10.5665L22.1124 13.772ZM42.2499 29.6871C42.2499 30.8119 42.6659 31.6742 43.4979 32.274C44.3299 32.8739 45.4644 33.1738 46.9014 33.1738H47.8657C48.6221 33.1738 49.1893 33.38 49.5675 33.7924C49.9457 34.2048 50.1348 34.8984 50.1348 35.8732C50.1348 36.9605 49.9457 37.7103 49.5675 38.1227C49.2271 38.5351 48.6599 38.7413 47.8657 38.7413C46.4287 38.7413 45.1618 38.5726 44.0651 38.2352C42.9684 37.8603 42.0987 37.0729 41.4558 35.8732C40.9263 36.9605 40.1322 37.7103 39.0733 38.1227C38.0144 38.5351 36.5774 38.7413 34.7622 38.7413H7.13688C4.75441 38.7413 3.05264 38.1789 2.03159 37.0542C1.01053 35.892 0.5 34.0924 0.5 31.6554V19.5644C0.5 19.1895 0.689085 19.002 1.06725 19.002H6.28599C6.66416 19.002 6.85325 19.1895 6.85325 19.5644V30.1933C6.85325 31.5429 7.21251 32.3865 7.93103 32.7239C8.64955 33.0239 9.91642 33.1738 11.7316 33.1738H33.0604C33.7411 33.1738 34.2516 33.0801 34.592 32.8926C34.9702 32.7052 35.2538 32.4052 35.4429 31.9928C35.632 31.5804 35.7454 31.0368 35.7832 30.362C35.821 29.6871 35.8399 28.8623 35.8399 27.8875V1.06237C35.8399 0.687457 36.029 0.5 36.4072 0.5H41.6827C42.0608 0.5 42.2499 0.687457 42.2499 1.06237V29.6871ZM47.8551 38.7413C47.0988 38.7413 46.5315 38.5726 46.1533 38.2352C45.7752 37.8603 45.5861 37.1292 45.5861 36.0419C45.5861 34.9922 45.7752 34.2611 46.1533 33.8487C46.4937 33.3988 47.0609 33.1738 47.8551 33.1738H50.6346C51.5801 33.1738 52.2608 32.9676 52.6768 32.5552C53.1306 32.1053 53.3575 31.318 53.3575 30.1933V1.06237C53.3575 0.687457 53.5466 0.5 53.9247 0.5H59.2002C59.5784 0.5 59.7674 0.687457 59.7674 1.06237V31.6554C59.7674 34.0924 59.2569 35.892 58.2359 37.0542C57.2148 38.1789 55.513 38.7413 53.1306 38.7413H47.8551ZM67.1639 1.06237C67.1639 0.687457 67.353 0.5 67.7312 0.5H73.0066C73.3848 0.5 73.5739 0.687457 73.5739 1.06237V30.1933C73.5739 31.318 73.7819 32.1053 74.1979 32.5552C74.6517 32.9676 75.3513 33.1738 76.2967 33.1738H78.2821C79.0384 33.1738 79.6057 33.3988 79.9839 33.8487C80.362 34.2611 80.5511 34.9922 80.5511 36.0419C80.5511 37.2042 80.362 37.954 79.9839 38.2914C79.6435 38.5913 79.0762 38.7413 78.2821 38.7413H73.8008C71.4183 38.7413 69.7166 38.1789 68.6955 37.0542C67.6744 35.892 67.1639 34.0924 67.1639 31.6554V1.06237ZM95.6255 39.135C93.7346 39.135 92.0328 38.8913 90.5202 38.4039C89.0075 37.879 87.7406 37.0354 86.7196 35.8732C86.3414 36.4731 85.8876 36.9605 85.3581 37.3354C84.8287 37.7103 84.2804 38.0102 83.7131 38.2352C83.1459 38.4226 82.5597 38.5538 81.9546 38.6288C81.3495 38.7038 80.7823 38.7413 80.2529 38.7413H78.2675C77.5111 38.7413 76.9439 38.5351 76.5657 38.1227C76.1875 37.6728 75.9985 36.9417 75.9985 35.9294C75.9985 34.8422 76.1875 34.1111 76.5657 33.7362C76.9061 33.3613 77.4733 33.1738 78.2675 33.1738H80.4798C80.8957 33.1738 81.3117 33.0988 81.7277 32.9489C82.1437 32.7614 82.5219 32.4802 82.8622 32.1053C83.2026 31.6929 83.4862 31.168 83.7131 30.5307C83.94 29.8558 84.0535 29.031 84.0535 28.0562C84.0156 27.7563 83.9967 27.4751 83.9967 27.2127C83.9967 26.9502 83.9967 26.6691 83.9967 26.3691C84.0346 24.1946 84.3371 22.3575 84.9043 20.8579C85.5094 19.3207 86.3225 18.0835 87.3435 17.1462C88.4024 16.1714 89.6315 15.4778 91.0307 15.0654C92.4299 14.6155 93.9615 14.3906 95.6255 14.3906C97.2894 14.3906 98.8399 14.6155 100.277 15.0654C101.714 15.5153 102.943 16.2277 103.964 17.2025C105.023 18.1772 105.836 19.4707 106.403 21.0828C107.008 22.695 107.311 24.6445 107.311 26.9315C107.311 29.1435 107.027 31.0181 106.46 32.5552C105.893 34.0924 105.099 35.3483 104.078 36.3231C103.056 37.2979 101.827 38.0102 100.39 38.4601C98.9533 38.91 97.365 39.135 95.6255 39.135ZM95.6255 20.0143C93.8102 20.0143 92.4677 20.5954 91.5979 21.7577C90.7281 22.9199 90.2933 24.607 90.2933 26.819C90.2933 29.2185 90.7281 30.9431 91.5979 31.9928C92.4677 33.0426 93.8102 33.5675 95.6255 33.5675C97.4785 33.5675 98.8399 33.0426 99.7097 31.9928C100.579 30.9056 101.014 29.181 101.014 26.819C101.014 22.2825 99.2181 20.0143 95.6255 20.0143ZM117.15 9.77914C116.772 9.77914 116.583 9.59168 116.583 9.21677V4.38037C116.583 4.00545 116.772 3.81799 117.15 3.81799H122.596C122.974 3.81799 123.163 4.00545 123.163 4.38037V9.21677C123.163 9.59168 122.974 9.77914 122.596 9.77914H117.15ZM116.64 15.9652C116.64 15.5903 116.829 15.4029 117.207 15.4029H122.482C122.86 15.4029 123.05 15.5903 123.05 15.9652V29.6871C123.05 30.8119 123.466 31.6742 124.298 32.274C125.167 32.8739 126.321 33.1738 127.758 33.1738H128.722C129.478 33.1738 130.046 33.38 130.424 33.7924C130.802 34.2048 130.991 34.8984 130.991 35.8732C130.991 36.9605 130.802 37.7103 130.424 38.1227C130.083 38.5351 129.516 38.7413 128.722 38.7413C127.436 38.7413 126.321 38.6288 125.375 38.4039C124.468 38.1789 123.692 37.6728 123.05 36.8855V37.954C123.05 39.9785 122.879 41.7406 122.539 43.2403C122.199 44.7774 121.631 46.0521 120.837 47.0644C120.081 48.0767 119.06 48.8265 117.774 49.3139C116.488 49.8388 114.9 50.1012 113.009 50.1012H110.91C110.532 50.1012 110.343 49.9138 110.343 49.5389V45.0399C110.343 44.665 110.532 44.4775 110.91 44.4775H112.158C113.255 44.4775 114.106 44.29 114.711 43.9151C115.316 43.5402 115.751 42.9778 116.016 42.228C116.318 41.5157 116.488 40.6346 116.526 39.5849C116.602 38.5726 116.64 37.3916 116.64 36.0419V15.9652ZM128.733 38.7413C127.977 38.7413 127.41 38.5726 127.031 38.2352C126.653 37.8603 126.464 37.1292 126.464 36.0419C126.464 34.9922 126.653 34.2611 127.031 33.8487C127.372 33.3988 127.939 33.1738 128.733 33.1738H131.513C132.458 33.1738 133.139 32.9676 133.555 32.5552C134.009 32.1053 134.236 31.318 134.236 30.1933V1.06237C134.236 0.687457 134.425 0.5 134.803 0.5H140.078C140.456 0.5 140.646 0.687457 140.646 1.06237V31.6554C140.646 34.0924 140.135 35.892 139.114 37.0542C138.093 38.1789 136.391 38.7413 134.009 38.7413H128.733ZM154.452 38.1789C154.452 38.5538 154.263 38.7413 153.885 38.7413H148.609C148.231 38.7413 148.042 38.5538 148.042 38.1789V1.06237C148.042 0.687457 148.231 0.5 148.609 0.5H153.885C154.263 0.5 154.452 0.687457 154.452 1.06237V38.1789ZM179.95 32.7802C179.95 34.2048 180.214 35.4046 180.744 36.3793C181.273 37.3166 181.954 38.0665 182.786 38.6288C183.618 39.1912 184.563 39.5849 185.622 39.8098C186.681 40.0348 187.759 40.1472 188.855 40.1472H200.144C202.337 40.1472 203.831 39.8473 204.625 39.2474C205.457 38.6851 205.873 37.9727 205.873 37.1104C205.873 36.5481 205.552 35.9857 204.909 35.4233C204.304 34.8609 203.51 34.2798 202.526 33.68C201.581 33.0426 200.56 32.3678 199.463 31.6554C198.366 30.9431 197.326 30.137 196.343 29.2372C195.398 28.2999 194.604 27.2689 193.961 26.1442C193.356 24.9819 193.053 23.651 193.053 22.1513C193.053 20.8016 193.318 19.5457 193.847 18.3834C194.377 17.1837 195.114 16.1527 196.06 15.2904C197.043 14.3906 198.215 13.697 199.577 13.2096C200.938 12.6847 202.47 12.4223 204.171 12.4223C206.781 12.4223 208.861 12.8347 210.411 13.6595C211.999 14.4468 213.342 15.4966 214.439 16.8088C214.666 17.0712 214.609 17.3337 214.268 17.5961L211.205 20.5767C210.903 20.8016 210.638 20.7829 210.411 20.5205C209.617 19.7331 208.766 19.1333 207.858 18.7209C206.951 18.271 205.835 18.046 204.512 18.046C203.226 18.046 202.073 18.4022 201.051 19.1145C200.068 19.7894 199.577 20.8016 199.577 22.1513C199.577 23.0511 199.898 23.8759 200.541 24.6258C201.184 25.3756 201.978 26.1067 202.923 26.819C203.907 27.5314 204.947 28.2624 206.043 29.0123C207.178 29.7621 208.218 30.5682 209.163 31.4305C210.146 32.2553 210.959 33.1738 211.602 34.1861C212.245 35.1609 212.567 36.2856 212.567 37.5603C212.567 38.6851 212.359 39.7536 211.943 40.7658C211.527 41.7781 210.865 42.6592 209.957 43.409C209.05 44.1963 207.877 44.7962 206.44 45.2086C205.003 45.6585 203.283 45.8834 201.278 45.8834H188.061C183.145 45.8834 179.477 44.7587 177.057 42.5092C174.674 40.2597 173.483 37.2042 173.483 33.3425C173.483 31.318 173.804 29.2935 174.447 27.2689C175.09 25.2444 175.884 23.501 176.83 22.0389C177.019 21.7014 177.302 21.6639 177.681 21.9264L182.275 23.726C182.464 23.801 182.559 23.9134 182.559 24.0634C182.597 24.1759 182.578 24.3071 182.502 24.4571C181.897 25.5068 181.311 26.744 180.744 28.1687C180.214 29.5559 179.95 31.093 179.95 32.7802ZM194.812 55.5C194.433 55.5 194.244 55.3125 194.244 54.9376V50.1012C194.244 49.7263 194.433 49.5389 194.812 49.5389H199.577C199.955 49.5389 200.144 49.7263 200.144 50.1012V54.9376C200.144 55.3125 199.955 55.5 199.577 55.5H194.812ZM187.437 55.5C187.059 55.5 186.87 55.3125 186.87 54.9376V50.1012C186.87 49.7263 187.059 49.5389 187.437 49.5389H192.202C192.58 49.5389 192.77 49.7263 192.77 50.1012V54.9376C192.77 55.3125 192.58 55.5 192.202 55.5H187.437ZM241.439 29.1247C241.439 30.9993 241.269 32.5552 240.929 33.7924C240.589 34.9922 240.078 35.9669 239.397 36.7168C238.717 37.4666 237.847 37.9915 236.788 38.2914C235.729 38.5913 234.481 38.7413 233.044 38.7413H219.884C219.506 38.7413 219.317 38.5538 219.317 38.1789V33.7362C219.317 33.3613 219.506 33.1738 219.884 33.1738H230.435C231.456 33.1738 232.269 33.0988 232.874 32.9489C233.479 32.7989 233.933 32.5552 234.235 32.2178C234.576 31.8429 234.784 31.3742 234.859 30.8119C234.973 30.2495 235.03 29.5559 235.03 28.7311V24.9632C235.03 21.6639 233.101 20.0143 229.244 20.0143H222.436C222.058 20.0143 221.869 19.8269 221.869 19.4519V14.953C221.869 14.578 222.058 14.3906 222.436 14.3906H231.513C234.538 14.3906 236.939 15.2154 238.717 16.865C240.532 18.4772 241.439 21.0078 241.439 24.4571V29.1247ZM248.087 1.06237C248.087 0.687457 248.276 0.5 248.654 0.5H253.93C254.308 0.5 254.497 0.687457 254.497 1.06237V30.1933C254.497 31.318 254.705 32.1053 255.121 32.5552C255.575 32.9676 256.274 33.1738 257.22 33.1738H259.205C259.962 33.1738 260.529 33.3988 260.907 33.8487C261.285 34.2611 261.474 34.9922 261.474 36.0419C261.474 37.2042 261.285 37.954 260.907 38.2914C260.567 38.5913 259.999 38.7413 259.205 38.7413H254.724C252.341 38.7413 250.64 38.1789 249.619 37.0542C248.598 35.892 248.087 34.0924 248.087 31.6554V1.06237ZM265.487 9.77914C265.109 9.77914 264.92 9.59168 264.92 9.21677V4.38037C264.92 4.00545 265.109 3.81799 265.487 3.81799H270.933C271.311 3.81799 271.5 4.00545 271.5 4.38037V9.21677C271.5 9.59168 271.311 9.77914 270.933 9.77914H265.487ZM259.474 38.7413C258.718 38.7413 258.151 38.6101 257.772 38.3476C257.394 38.0852 257.205 37.5603 257.205 36.773C257.205 35.8357 257.394 35.0109 257.772 34.2986C258.113 33.5487 258.68 33.1738 259.474 33.1738H262.254C263.199 33.1738 263.88 32.9676 264.296 32.5552C264.75 32.1053 264.977 31.318 264.977 30.1933V15.9652C264.977 15.5903 265.166 15.4029 265.544 15.4029H270.819C271.197 15.4029 271.387 15.5903 271.387 15.9652V31.6554C271.387 34.0924 270.876 35.892 269.855 37.0542C268.834 38.1789 267.132 38.7413 264.75 38.7413H259.474Z" stroke="white" mask="url(#path-1-outside-1_1_230)"/>
</g>
</svg>
