<svg width="24" height="24" viewBox="0 0 24 24" fill="none" xmlns="http://www.w3.org/2000/svg">
<g clip-path="url(#clip0_1_149)">
<path fill-rule="evenodd" clip-rule="evenodd" d="M23.3165 16H0.682861C2.33019 20.6608 6.77486 24 11.9997 24C17.2245 24 21.6693 20.6608 23.3165 16Z" fill="#262626"/>
<path fill-rule="evenodd" clip-rule="evenodd" d="M0.6828 16H23.3164C23.7587 14.7489 23.9992 13.4027 23.9992 12C23.9992 10.5973 23.7587 9.25107 23.3165 8H0.682667C0.240667 9.25107 0 10.5973 0 12C0 13.4027 0.240667 14.7489 0.6828 16Z" fill="white"/>
<path fill-rule="evenodd" clip-rule="evenodd" d="M0.682861 8H23.3165C21.6694 3.3392 17.2245 0 11.9997 0C6.77499 0 2.33019 3.3392 0.682861 8Z" fill="#F1453D"/>
<path fill-rule="evenodd" clip-rule="evenodd" d="M12.0324 12.0693L14.7718 14.6125L14.5769 9.99372C14.5483 9.29372 13.9398 9.45426 13.498 9.70679C13.0504 9.99372 12.5397 9.99372 12.0002 9.80426C11.4608 9.99359 10.9501 9.99359 10.5024 9.70679C10.0606 9.45426 9.45238 9.29372 9.42372 9.99372L9.22852 14.6124L12.0325 12.0693H12.0324Z" fill="white"/>
<path fill-rule="evenodd" clip-rule="evenodd" d="M12.015 12.088L14.7546 14.6311L14.7999 14.6732L14.7972 14.6115L14.6022 9.99268C14.5884 9.65734 14.4422 9.48628 14.1942 9.46774C13.9972 9.45308 13.7442 9.53681 13.4854 9.68481C13.0647 9.95428 12.5722 9.97814 12.0086 9.78028L12.0002 9.77734L11.9916 9.78028C11.4282 9.97814 10.9356 9.95428 10.516 9.68548C10.256 9.53681 10.0031 9.45294 9.80617 9.46774C9.55817 9.48641 9.41191 9.65734 9.39817 9.99268L9.20297 14.6113L9.20044 14.6721L9.24551 14.6313L12.0495 12.0881L12.0982 12.0439H11.9676L12.015 12.088ZM12.0496 12.0507L12.0323 12.0693L12.0152 12.0505L9.21124 14.5937L9.25377 14.6136L9.44897 9.99481C9.46164 9.68388 9.58924 9.53481 9.80991 9.51841C9.99457 9.50454 10.2388 9.58548 10.4898 9.72881C10.9226 10.0063 11.4312 10.0309 12.0084 9.82828H11.9916C12.5691 10.0309 13.0778 10.0063 13.5116 9.72828C13.7614 9.58561 14.0058 9.50454 14.1904 9.51841C14.4112 9.53494 14.5387 9.68388 14.5514 9.99468L14.7464 14.6136L14.7891 14.5939L12.0496 12.0507Z" fill="#C09300"/>
<path fill-rule="evenodd" clip-rule="evenodd" d="M9.73869 9.83295L9.54936 14.3257L9.22803 14.6124L9.42309 9.99375C9.51483 9.93055 9.67563 9.83295 9.73869 9.83295ZM10.1235 10.1545L9.96283 13.9127L9.64149 14.2416L9.83656 9.90201C9.89976 9.96508 10.0891 10.1201 10.1235 10.1545ZM10.4735 10.4413L10.3474 13.5759L10.0891 13.8281L10.2498 10.252C10.3128 10.3151 10.4391 10.4069 10.4735 10.4413ZM10.8523 10.6021L10.726 13.2736L10.4735 13.4784L10.5998 10.5047C10.663 10.5333 10.7891 10.6021 10.8523 10.6021ZM11.2023 10.6021L11.1103 12.8284L10.8522 13.0809L10.9498 10.6308C11.0128 10.6308 11.1735 10.6308 11.2023 10.6021ZM14.2611 9.83295L14.4504 14.3257L14.7718 14.6124L14.5767 9.99375C14.485 9.93055 14.3242 9.83295 14.2611 9.83295ZM13.8763 10.1545L14.037 13.9127L14.3583 14.2416L14.1632 9.90201C14.1 9.96508 13.9107 10.1201 13.8763 10.1545ZM13.5263 10.4413L13.6524 13.5759L13.9107 13.8281L13.75 10.252C13.687 10.3151 13.5607 10.4069 13.5263 10.4413ZM13.1475 10.6021L13.2738 13.2736L13.5263 13.4784L13.4 10.5047C13.3368 10.5333 13.2107 10.6021 13.1475 10.6021ZM12.7975 10.6021L12.8895 12.8284L13.1476 13.0809L13.05 10.6308C12.987 10.6308 12.8263 10.6308 12.7975 10.6021ZM11.8528 12.5711L11.4658 14.3328L11.6134 14.4804L11.7676 14.3665L11.912 13.3391L11.8518 14.3615L12 14.55L12.1482 14.3615L12.0882 13.334L12.2326 14.3665L12.3866 14.4804L12.5343 14.3328L12.1472 12.5711H11.8528Z" fill="#C09300"/>
<path fill-rule="evenodd" clip-rule="evenodd" d="M10.376 14.5152L11.4262 14.6759L11.8737 12.6389L11.1392 11.8069L10.376 14.5152Z" fill="white"/>
<path fill-rule="evenodd" clip-rule="evenodd" d="M11.8627 12.5904L11.8995 12.6321L11.4447 14.7028L10.3459 14.5345L11.1155 11.8069L11.1571 11.7912L11.1654 11.8007L11.1505 11.8547L10.4067 14.4939L11.4074 14.6488L11.8475 12.6475L11.8627 12.5904Z" fill="#C09300"/>
<path fill-rule="evenodd" clip-rule="evenodd" d="M10.9695 12.9987L11.4926 12.4991L11.4575 12.4624L10.9875 12.9089L10.9105 12.7213L10.8635 12.7405L10.9695 12.9987Z" fill="#C09300"/>
<path fill-rule="evenodd" clip-rule="evenodd" d="M11.3157 13.21L11.67 12.7463L11.6296 12.7155L11.3528 13.0788L11.2557 12.1675L11.2051 12.1728L11.3157 13.21Z" fill="#C09300"/>
<path fill-rule="evenodd" clip-rule="evenodd" d="M11.4993 12.8984L11.6717 13.4935L11.7205 13.4792L11.5481 12.8843L11.4993 12.8984Z" fill="#C09300"/>
<path fill-rule="evenodd" clip-rule="evenodd" d="M11.3938 13.7835L11.4362 13.8115L11.7849 13.2817L11.7425 13.2537L11.3938 13.7835ZM11.437 13.7928L11.3292 13.1988L11.0918 13.5219L10.9912 13.1635L10.6233 13.5408L10.809 14.2219L11.0408 13.842L11.1661 14.224L11.4306 13.8125L11.388 13.7851L11.181 14.1061L11.0544 13.7205L10.8264 14.0928L10.6797 13.5559L10.9664 13.2628L11.0706 13.6344L11.3004 13.3248L11.387 13.8027L11.3997 13.862L11.4989 14.3313L11.5486 14.3207L11.437 13.7928Z" fill="#C09300"/>
<path fill-rule="evenodd" clip-rule="evenodd" d="M10.8035 14.2149L10.9422 14.6756L11.1332 14.3543L11.2414 14.6839L11.2896 14.6679L11.1459 14.2301L10.9578 14.5507L10.8211 14.0973L10.5791 14.4373L10.6204 14.4669L10.8035 14.2149Z" fill="#C09300"/>
<path fill-rule="evenodd" clip-rule="evenodd" d="M12.8608 11.8069L13.624 14.5151L12.5737 14.6759L12.1262 12.6389L12.8608 11.8069Z" fill="white"/>
<path fill-rule="evenodd" clip-rule="evenodd" d="M12.1363 12.5916L12.1006 12.6321L12.5554 14.7028L13.6542 14.5345L12.8846 11.8069L12.843 11.7912L12.8325 11.8032L12.8497 11.8547L13.5934 14.4939L12.5927 14.6488L12.1526 12.6475L12.1363 12.5916Z" fill="#C09300"/>
<path fill-rule="evenodd" clip-rule="evenodd" d="M13.0306 12.9987L12.5076 12.4991L12.5426 12.4624L13.0126 12.9089L13.0897 12.7213L13.1366 12.7405L13.0306 12.9987Z" fill="#C09300"/>
<path fill-rule="evenodd" clip-rule="evenodd" d="M12.6843 13.21L12.3301 12.7463L12.3705 12.7155L12.6473 13.0788L12.7443 12.1675L12.795 12.1728L12.6843 13.21Z" fill="#C09300"/>
<path fill-rule="evenodd" clip-rule="evenodd" d="M12.5007 12.8984L12.3283 13.4935L12.2795 13.4792L12.4519 12.8843L12.5007 12.8984Z" fill="#C09300"/>
<path fill-rule="evenodd" clip-rule="evenodd" d="M12.6064 13.7835L12.564 13.8115L12.2153 13.2817L12.2577 13.2537L12.6064 13.7835ZM12.5632 13.7928L12.6711 13.1988L12.9084 13.5219L13.0091 13.1635L13.3769 13.5408L13.1912 14.2219L12.9595 13.842L12.8341 14.224L12.5696 13.8125L12.6123 13.7851L12.8192 14.1061L12.9459 13.7205L13.1739 14.0928L13.3205 13.5559L13.0339 13.2628L12.9296 13.6344L12.6999 13.3248L12.6132 13.8027L12.6005 13.862L12.5013 14.3313L12.4516 14.3207L12.5632 13.7928Z" fill="#C09300"/>
<path fill-rule="evenodd" clip-rule="evenodd" d="M13.1968 14.2149L13.0582 14.6756L12.8671 14.3543L12.759 14.6839L12.7107 14.6679L12.8544 14.2301L13.0426 14.5507L13.1792 14.0973L13.4212 14.4373L13.3799 14.4669L13.1968 14.2149Z" fill="#C09300"/>
<path fill-rule="evenodd" clip-rule="evenodd" d="M14.0085 15.5364C14.1978 15.502 14.1978 15.4044 14.1978 15.2781C14.3873 15.2151 14.2897 14.9915 14.4217 14.9915C14.2897 15.0259 14.261 14.7675 14.1004 14.8021C14.1004 14.5781 13.8765 14.5496 13.687 14.6125C13.3084 14.7389 12.6369 14.7676 12 14.7676C11.363 14.7389 10.6973 14.7389 10.3128 14.6125C10.1234 14.5496 9.8997 14.5783 9.8997 14.8021C9.73904 14.7675 9.71037 15.0259 9.57837 14.9915C9.71037 14.9915 9.61277 15.2151 9.8021 15.2781C9.8021 15.4044 9.8021 15.5021 9.9973 15.5364C10.439 15.6627 11.2024 15.7257 12 15.7257C12.7977 15.7257 13.5609 15.6627 14.0085 15.5364Z" fill="white"/>
<path fill-rule="evenodd" clip-rule="evenodd" d="M14.2427 15.3115C14.3088 15.2808 14.3459 15.2295 14.368 15.1568C14.3708 15.1479 14.381 15.1077 14.3826 15.1015C14.3959 15.0468 14.4503 14.9804 14.4503 14.9804C14.4503 14.9804 14.3654 14.9388 14.325 14.8876L14.3092 14.8675C14.2352 14.7729 14.1983 14.7507 14.1439 14.7499C14.1135 14.5501 13.904 14.4903 13.672 14.5675C13.346 14.6761 12.7831 14.72 11.9999 14.72C11.9412 14.7173 11.8826 14.7149 11.8239 14.7127L11.6468 14.706C10.8902 14.6783 10.5836 14.6515 10.3276 14.5673C10.0767 14.4839 9.8747 14.6752 9.85924 14.7507C9.79617 14.7529 9.7499 14.7917 9.6907 14.8675L9.67497 14.8876C9.63444 14.9388 9.54297 14.9977 9.54297 14.9977C9.54297 14.9977 9.60404 15.0468 9.61737 15.1015C9.61884 15.1077 9.6291 15.1479 9.63177 15.1568C9.6571 15.2397 9.70804 15.3113 9.75497 15.3113C9.7599 15.4824 9.80724 15.5513 9.98897 15.5833C10.4143 15.7051 11.1623 15.7733 11.9999 15.7733C12.8368 15.7733 13.5855 15.7051 14.0212 15.5821C14.2052 15.5491 14.2591 15.388 14.2427 15.3115ZM11.9999 15.6781C11.1704 15.6781 10.43 15.6107 10.0103 15.4907C9.86737 15.4653 9.84964 15.4328 9.84964 15.2781V15.2439L9.8171 15.2331C9.7647 15.2156 9.73977 15.1849 9.7227 15.1291C9.71818 15.1124 9.71387 15.0957 9.70977 15.0789C9.6871 14.9857 9.6887 15.0112 9.6887 15.0112C9.6887 15.0112 9.72804 14.9739 9.7495 14.9465L9.76564 14.926C9.81884 14.858 9.84617 14.8393 9.88964 14.8487L9.94724 14.8609V14.8021C9.94724 14.6435 10.099 14.5915 10.2978 14.6577C10.5663 14.7459 10.8756 14.7729 11.6434 14.8011L11.8203 14.8077C11.8859 14.8103 11.9432 14.8127 11.9976 14.8151C12.7936 14.8151 13.363 14.7708 13.7022 14.6577C13.9008 14.5916 14.0528 14.6436 14.0528 14.8021V14.8609L14.1102 14.8485C14.1538 14.8392 14.1811 14.858 14.2342 14.926L14.2503 14.9465C14.3123 15.0252 14.3116 15.0124 14.3116 15.0124C14.3116 15.0124 14.2966 15.0528 14.2902 15.0789C14.2886 15.0855 14.2795 15.1217 14.2771 15.1291C14.2602 15.1849 14.2352 15.2156 14.1828 15.2331L14.1503 15.2439V15.2781C14.1503 15.4329 14.133 15.4655 13.9999 15.4896C13.5699 15.6107 12.8288 15.6781 11.9999 15.6781Z" fill="#C09300"/>
<path fill-rule="evenodd" clip-rule="evenodd" d="M11.6847 14.5493C11.706 14.5493 11.8147 14.6124 11.8147 14.6124C11.8147 14.6124 11.913 14.6465 11.9322 14.6973C11.9671 14.7893 11.8834 14.9956 11.8834 14.9956C11.8834 14.9956 11.7574 14.7872 11.65 14.8019C11.4264 14.8305 11.0763 14.8019 10.887 14.7675C10.7263 14.7387 10.3763 14.6756 10.1523 14.6124C10.0815 14.5815 9.90751 14.7129 9.90044 14.6735C9.89431 14.6391 9.87471 14.5328 9.92577 14.4724C10.0011 14.3836 10.1642 14.3427 10.2155 14.3543C10.4106 14.4173 10.6631 14.4805 10.9156 14.5149C11.1738 14.5493 11.4607 14.578 11.6847 14.5493Z" fill="white"/>
<path fill-rule="evenodd" clip-rule="evenodd" d="M10.7622 14.7707C10.4994 14.7224 10.302 14.6811 10.1422 14.6357C10.0288 14.5864 9.99042 14.5037 10.03 14.4247C10.064 14.3567 10.1482 14.3129 10.2234 14.33C10.4388 14.3999 10.6876 14.4583 10.919 14.4897C11.2532 14.5344 11.491 14.5485 11.6814 14.5241L11.6847 14.524C11.759 14.524 11.8256 14.5864 11.8346 14.6596C11.8448 14.7436 11.7796 14.8099 11.6532 14.8271C11.489 14.8481 11.2338 14.8395 11.0223 14.8133C11.0108 14.8344 10.993 14.8535 10.9666 14.8765C10.9243 14.9136 10.8852 14.9757 10.8852 14.9757C10.8852 14.9757 10.8495 14.9103 10.8159 14.8668C10.8115 14.8615 10.8092 14.8583 10.8072 14.8557C10.7832 14.8245 10.7682 14.7985 10.7622 14.7707ZM11.0371 14.764C11.243 14.7887 11.4894 14.7968 11.6467 14.7767C11.7476 14.7629 11.7907 14.7193 11.784 14.6657C11.7783 14.6175 11.7527 14.5748 11.6847 14.5748C11.5558 14.588 11.2506 14.5853 10.9122 14.5401C10.6739 14.5066 10.4389 14.4527 10.2099 14.3791C10.1606 14.3679 10.0992 14.3997 10.0754 14.4475C10.0499 14.4984 10.0742 14.5507 10.1594 14.588C10.3122 14.6311 10.5047 14.6716 10.7607 14.7187C10.7616 14.7123 10.7628 14.7057 10.7644 14.6987L10.7638 14.7044C10.7638 14.6272 10.8384 14.5528 10.9155 14.5528C10.9896 14.5528 11.0384 14.6484 11.0384 14.7389C11.0384 14.7479 11.038 14.7563 11.0371 14.764Z" fill="#C09300"/>
<path fill-rule="evenodd" clip-rule="evenodd" d="M10.856 14.8357L10.8475 14.8247C10.813 14.78 10.8038 14.7548 10.814 14.71L10.8147 14.7044C10.8147 14.6553 10.8664 14.6036 10.9155 14.6036C10.9523 14.6036 10.9875 14.6729 10.9875 14.7389C10.9875 14.7824 10.9755 14.8011 10.9332 14.8383C10.9143 14.8548 10.8887 14.884 10.8887 14.884C10.8887 14.884 10.8959 14.8872 10.856 14.8357Z" fill="white"/>
<path fill-rule="evenodd" clip-rule="evenodd" d="M10.128 14.364C9.92827 14.3287 9.79627 14.5543 9.87721 14.7157L9.90107 14.7635L9.92307 14.7149C9.93107 14.6973 9.95041 14.6859 10.0039 14.6649C10.0709 14.6387 10.0965 14.6236 10.1124 14.5887C10.1273 14.5468 10.1283 14.5223 10.1223 14.4864C10.1209 14.4792 10.1209 14.4784 10.1205 14.4757C10.1173 14.4531 10.1215 14.4369 10.1445 14.4033L10.1669 14.3708L10.128 14.364Z" fill="#C09300"/>
<path fill-rule="evenodd" clip-rule="evenodd" d="M10.0701 14.4828L10.0721 14.4948C10.0775 14.5199 10.0751 14.546 10.0653 14.5697C10.0581 14.5853 10.0387 14.5967 9.98535 14.6177C9.91815 14.644 9.90895 14.6555 9.90895 14.6555C9.88228 14.5445 9.96228 14.4147 10.0828 14.4112C10.071 14.4331 10.0666 14.4582 10.0701 14.4828Z" fill="white"/>
<path fill-rule="evenodd" clip-rule="evenodd" d="M11.8484 15.0693L11.8944 15.0063C11.9447 14.9372 11.9731 14.8363 11.9652 14.7521C11.9557 14.652 11.8965 14.5871 11.7952 14.5871H11.7469L11.7743 14.6269C11.7923 14.6532 11.7897 14.6616 11.764 14.6836L11.7459 14.6984C11.7065 14.7311 11.6877 14.7587 11.6877 14.802C11.6877 14.8313 11.7053 14.8533 11.7395 14.8789C11.7451 14.8832 11.7511 14.8875 11.7591 14.8931L11.7791 14.9068C11.8285 14.9413 11.8484 14.9639 11.8484 14.9913V15.0693Z" fill="#C09300"/>
<path fill-rule="evenodd" clip-rule="evenodd" d="M11.808 14.8651L11.788 14.8512C11.7819 14.847 11.7758 14.8427 11.7699 14.8383C11.7477 14.8216 11.7385 14.8103 11.7385 14.802C11.7385 14.7775 11.7495 14.7615 11.7784 14.7376L11.7968 14.7223C11.8405 14.6852 11.8367 14.6637 11.8367 14.6436C11.8832 14.6575 11.9089 14.6969 11.9147 14.7569C11.9199 14.8119 11.9063 14.8769 11.8803 14.9309C11.8744 14.9145 11.8708 14.9087 11.808 14.8651Z" fill="white"/>
<path fill-rule="evenodd" clip-rule="evenodd" d="M10.1809 14.4689L10.3705 14.5321L10.4301 14.552L10.3898 14.5037C10.3585 14.4663 10.2586 14.4344 10.1868 14.4344L10.1809 14.4689ZM10.4969 14.5667L10.7209 14.6299L10.7342 14.5971C10.6764 14.5656 10.5478 14.5319 10.502 14.5319L10.4969 14.5667ZM11.5509 14.6599C11.4829 14.6635 11.437 14.6721 11.4149 14.6905L11.4285 14.722L11.6521 14.6932L11.65 14.6579C11.606 14.6579 11.5809 14.6583 11.5509 14.6599ZM11.0677 14.66L11.0762 14.6936H11.2998L11.3126 14.6632C11.2718 14.6221 11.137 14.622 11.0677 14.66Z" fill="#C09300"/>
<path fill-rule="evenodd" clip-rule="evenodd" d="M12.3153 14.5493C12.294 14.5493 12.1853 14.6124 12.1853 14.6124C12.1853 14.6124 12.087 14.6465 12.0678 14.6973C12.0329 14.7893 12.1166 14.9956 12.1166 14.9956C12.1166 14.9956 12.2426 14.7872 12.35 14.8019C12.5736 14.8305 12.9237 14.8019 13.113 14.7675C13.2737 14.7387 13.6237 14.6756 13.8477 14.6124C13.9185 14.5815 14.0925 14.7129 14.0996 14.6735C14.1057 14.6391 14.1253 14.5328 14.0742 14.4724C13.9989 14.3836 13.8359 14.3427 13.7845 14.3543C13.5561 14.4276 13.3219 14.4814 13.0844 14.5149C12.8263 14.5493 12.5392 14.578 12.3153 14.5493Z" fill="white"/>
<path fill-rule="evenodd" clip-rule="evenodd" d="M13.2378 14.7707C13.5006 14.7224 13.6979 14.6811 13.8578 14.6357C13.9711 14.5864 14.0095 14.5037 13.9699 14.4247C13.9359 14.3567 13.8518 14.3129 13.7766 14.33C13.5611 14.3999 13.3123 14.4583 13.081 14.4897C12.7467 14.5344 12.509 14.5485 12.3186 14.5241L12.3154 14.524C12.241 14.524 12.1743 14.5864 12.1654 14.6596C12.1551 14.7436 12.2203 14.8099 12.3467 14.8271C12.511 14.8481 12.7662 14.8395 12.9776 14.8133C12.9891 14.8344 13.007 14.8535 13.0334 14.8765C13.0756 14.9136 13.1147 14.9757 13.1147 14.9757C13.1147 14.9757 13.1504 14.9103 13.184 14.8668C13.1884 14.8615 13.1907 14.8583 13.1927 14.8557C13.2167 14.8245 13.2318 14.7985 13.2378 14.7707ZM12.9628 14.764C12.757 14.7887 12.5106 14.7968 12.3532 14.7767C12.2523 14.7629 12.2092 14.7193 12.2159 14.6657C12.2216 14.6175 12.2472 14.5748 12.3152 14.5748C12.4442 14.588 12.7494 14.5853 13.0878 14.5401C13.326 14.5066 13.561 14.4527 13.79 14.3791C13.8394 14.3679 13.9007 14.3997 13.9246 14.4475C13.95 14.4984 13.9258 14.5507 13.8406 14.588C13.6878 14.6311 13.4952 14.6716 13.2392 14.7187C13.2383 14.7119 13.237 14.7053 13.2355 14.6987L13.2362 14.7044C13.2362 14.6272 13.1615 14.5528 13.0844 14.5528C13.0103 14.5528 12.9615 14.6484 12.9615 14.7389C12.9615 14.7479 12.9619 14.7563 12.9628 14.764Z" fill="#C09300"/>
<path fill-rule="evenodd" clip-rule="evenodd" d="M13.1439 14.8357L13.1525 14.8247C13.187 14.78 13.1962 14.7548 13.1859 14.71L13.1853 14.7044C13.1853 14.6553 13.1335 14.6036 13.0845 14.6036C13.0477 14.6036 13.0125 14.6729 13.0125 14.7389C13.0125 14.7824 13.0245 14.8011 13.0667 14.8383C13.0857 14.8548 13.1113 14.884 13.1113 14.884C13.1113 14.884 13.1041 14.8872 13.1439 14.8357Z" fill="white"/>
<path fill-rule="evenodd" clip-rule="evenodd" d="M13.8719 14.364C14.0717 14.3287 14.2037 14.5543 14.1227 14.7157L14.0989 14.7635L14.0769 14.7149C14.0689 14.6973 14.0495 14.6859 13.9961 14.6649C13.929 14.6387 13.9034 14.6236 13.8875 14.5887C13.8726 14.5468 13.8717 14.5223 13.8777 14.4864C13.879 14.4792 13.879 14.4784 13.8794 14.4757C13.8826 14.4531 13.8785 14.4369 13.8554 14.4033L13.833 14.3708L13.8719 14.364Z" fill="#C09300"/>
<path fill-rule="evenodd" clip-rule="evenodd" d="M13.9299 14.4828L13.9279 14.4948C13.9225 14.5199 13.9249 14.546 13.9347 14.5697C13.9419 14.5853 13.9614 14.5967 14.0147 14.6177C14.0819 14.644 14.0911 14.6555 14.0911 14.6555C14.1178 14.5445 14.0378 14.4147 13.9172 14.4112C13.9228 14.422 13.9348 14.4472 13.9299 14.4828Z" fill="white"/>
<path fill-rule="evenodd" clip-rule="evenodd" d="M12.1515 15.0693L12.1055 15.0063C12.0553 14.9372 12.0269 14.8363 12.0347 14.7521C12.0442 14.652 12.1034 14.5871 12.2047 14.5871H12.253L12.2257 14.6269C12.2077 14.6532 12.2102 14.6616 12.2359 14.6836L12.2541 14.6984C12.2934 14.7311 12.3122 14.7587 12.3122 14.802C12.3122 14.8313 12.2946 14.8533 12.2605 14.8789C12.254 14.8838 12.2475 14.8885 12.2409 14.8931L12.2209 14.9068C12.1714 14.9413 12.1515 14.9639 12.1515 14.9913V15.0693Z" fill="#C09300"/>
<path fill-rule="evenodd" clip-rule="evenodd" d="M12.192 14.8651L12.212 14.8512C12.2195 14.8461 12.2251 14.8421 12.2301 14.8383C12.2523 14.8216 12.2615 14.8103 12.2615 14.802C12.2615 14.7775 12.2505 14.7615 12.2216 14.7376L12.2032 14.7223C12.1595 14.6852 12.1633 14.6637 12.1633 14.6436C12.1168 14.6575 12.0911 14.6969 12.0853 14.7569C12.0801 14.8119 12.0937 14.8769 12.1197 14.9309C12.1256 14.9145 12.1292 14.9087 12.192 14.8651Z" fill="white"/>
<path fill-rule="evenodd" clip-rule="evenodd" d="M13.8191 14.4689L13.6295 14.5321L13.5699 14.552L13.6102 14.5037C13.6415 14.4663 13.7414 14.4344 13.8132 14.4344L13.8191 14.4689ZM13.5031 14.5667L13.2791 14.6299L13.2658 14.5971C13.3236 14.5656 13.4522 14.5319 13.498 14.5319L13.5031 14.5667ZM12.4491 14.6599C12.5171 14.6635 12.563 14.6721 12.5851 14.6905L12.5715 14.722L12.3479 14.6932L12.35 14.6579C12.394 14.6579 12.4191 14.6583 12.4491 14.6599ZM12.9323 14.66L12.9238 14.6936H12.7002L12.6874 14.6632C12.7282 14.6221 12.863 14.622 12.9323 14.66Z" fill="#C09300"/>
<path fill-rule="evenodd" clip-rule="evenodd" d="M10.1337 14.9565C10.1124 14.9525 10.1012 14.9356 10.1065 14.9156C10.1132 14.8912 10.1325 14.8772 10.1511 14.8837C10.1628 14.8878 10.1843 14.9096 10.1844 14.9173C10.1844 14.9262 10.1731 14.9474 10.1683 14.9474C10.1661 14.9474 10.1629 14.9493 10.1609 14.9514C10.1569 14.9562 10.1444 14.9585 10.1337 14.9565ZM12.3309 15.1133C12.3229 15.1104 12.3103 15.0925 12.3104 15.0844C12.3104 15.0689 12.3333 15.0437 12.3475 15.0434C12.3545 15.0434 12.3737 15.0534 12.3808 15.0608C12.3939 15.0744 12.3911 15.0966 12.3747 15.1092C12.3667 15.1154 12.3427 15.1177 12.3309 15.1133ZM12.3453 15.2125C12.3285 15.2068 12.3224 15.1986 12.3211 15.18C12.3196 15.1605 12.3215 15.1576 12.342 15.1464L12.3567 15.1384L12.3705 15.1445C12.3897 15.153 12.3983 15.1624 12.3989 15.1752C12.3996 15.1892 12.3893 15.2034 12.3733 15.2105C12.3592 15.2169 12.3584 15.2169 12.3453 15.2125Z" fill="#C09300"/>
<path fill-rule="evenodd" clip-rule="evenodd" d="M10.31 14.7769C10.2962 14.7765 10.2772 14.7892 10.2663 14.7956C10.2403 14.8017 10.21 14.8177 10.185 14.8007C10.1603 14.7931 10.1276 14.7991 10.1238 14.8295C10.1302 14.8555 10.1667 14.8704 10.1888 14.8532C10.2052 14.8317 10.25 14.8191 10.2551 14.8557C10.2367 14.8833 10.2388 14.92 10.2238 14.9495C10.2209 14.9678 10.2141 14.9852 10.2038 15.0007C10.1852 15.0025 10.1656 15.0004 10.15 15.0119C10.1372 15.0124 10.1248 15.0159 10.1135 15.022C10.1022 15.028 10.0925 15.0366 10.085 15.0469C10.069 15.07 10.0535 15.0936 10.0488 15.1219C10.0531 15.1509 10.0862 15.1592 10.1112 15.1607C10.1379 15.168 10.1646 15.1776 10.1912 15.1857C10.2347 15.1955 10.2754 15.2111 10.3188 15.2207C10.3822 15.2397 10.4487 15.2487 10.5126 15.2657C10.5192 15.2679 10.5255 15.2697 10.5326 15.2707C10.559 15.2761 10.5728 15.2473 10.5751 15.2257C10.5882 15.1793 10.5982 15.1321 10.6112 15.0857C10.6203 15.0671 10.6312 15.0249 10.5951 15.0344C10.5744 15.0468 10.557 15.0653 10.5312 15.0669C10.4963 15.0689 10.5163 15.1048 10.53 15.1195C10.5315 15.1319 10.5304 15.1444 10.527 15.1564C10.5236 15.1685 10.5178 15.1797 10.51 15.1895C10.4892 15.2027 10.4632 15.1872 10.4412 15.182C10.4183 15.1824 10.3723 15.1707 10.3938 15.1393C10.4014 15.1164 10.402 15.0911 10.4112 15.0681C10.423 15.0436 10.4247 15.0168 10.43 14.9908C10.4156 14.9596 10.3908 15.0009 10.3714 15.0044C10.3578 15.0137 10.3071 15.0177 10.3338 15.042C10.3568 15.0593 10.3391 15.0899 10.3351 15.112C10.3335 15.1427 10.3015 15.1501 10.2763 15.1432C10.2512 15.1419 10.2163 15.1232 10.2376 15.0957C10.2424 15.0727 10.2504 15.0501 10.255 15.0269C10.2646 14.9989 10.2726 14.9724 10.2826 14.9444C10.2868 14.9196 10.2958 14.8961 10.3075 14.8744C10.3082 14.8471 10.3267 14.8235 10.3262 14.7957C10.3244 14.7821 10.3183 14.7772 10.31 14.7769ZM10.1663 15.0669C10.1693 15.0664 10.1723 15.0669 10.175 15.0683C10.185 15.0724 10.1854 15.0805 10.175 15.0895C10.1706 15.0933 10.1655 15.0971 10.1638 15.0969C10.1451 15.0953 10.1395 15.0925 10.1388 15.0857C10.138 15.0796 10.14 15.0779 10.1526 15.0719C10.1569 15.0696 10.1615 15.068 10.1663 15.0669ZM10.1248 15.2677C10.105 15.2491 10.1082 15.2355 10.1375 15.2136C10.15 15.2043 10.1576 15.2053 10.1722 15.2184C10.1942 15.2385 10.195 15.2513 10.1755 15.2685C10.1659 15.2772 10.1616 15.2789 10.1504 15.2789C10.1387 15.2791 10.1354 15.2776 10.1248 15.2677ZM10.2468 15.3045C10.2423 15.3034 10.238 15.3014 10.2342 15.2986C10.2304 15.2958 10.2273 15.2923 10.225 15.2882C10.2226 15.2841 10.2212 15.2796 10.2206 15.2749C10.2201 15.2703 10.2205 15.2655 10.2219 15.2611C10.2271 15.2437 10.23 15.242 10.2555 15.2417C10.2842 15.2413 10.2896 15.2461 10.2899 15.2713C10.2902 15.2855 10.289 15.2888 10.2819 15.2953C10.2771 15.2993 10.2714 15.3022 10.2654 15.3038C10.2593 15.3054 10.253 15.3056 10.2468 15.3045ZM13.8112 15.3077C13.8022 15.3001 13.8003 15.2968 13.8002 15.2872C13.8002 15.2707 13.8095 15.2587 13.83 15.2493C13.8574 15.2371 13.8684 15.2387 13.8787 15.2568C13.8924 15.2808 13.8918 15.2907 13.8754 15.3069C13.8663 15.3159 13.8647 15.3163 13.844 15.3165C13.8236 15.3167 13.8214 15.3161 13.8112 15.3077ZM10.4088 15.3537C10.3942 15.3497 10.3867 15.3389 10.3866 15.3215C10.3864 15.3081 10.3874 15.306 10.3967 15.2987C10.4035 15.2936 10.4114 15.2902 10.4198 15.2888C10.4304 15.2875 10.4344 15.2883 10.443 15.2944C10.465 15.3099 10.4696 15.3251 10.457 15.34C10.4434 15.3559 10.4304 15.3595 10.4088 15.3537ZM11.2856 15.3929C11.2824 15.3889 11.2752 15.3865 11.2746 15.3815C11.2759 15.3592 11.2768 15.3368 11.2839 15.3155C11.2879 15.2947 11.2844 15.2728 11.2918 15.2524C11.2992 15.2153 11.2992 15.1771 11.3078 15.1403C11.3078 15.1212 11.3104 15.1023 11.3155 15.084C11.3218 15.0552 11.316 15.0249 11.3246 14.9964C11.3236 14.9857 11.336 14.9571 11.3468 14.974C11.3626 14.9971 11.3832 15.0159 11.4036 15.0347C11.4211 15.0448 11.405 15.0596 11.393 15.0647C11.3763 15.0713 11.3723 15.0895 11.3735 15.1056C11.3712 15.1221 11.3646 15.1379 11.3639 15.1548C11.3603 15.1796 11.361 15.2049 11.3578 15.2299C11.3506 15.2541 11.3532 15.2803 11.3508 15.3053C11.3512 15.3213 11.3436 15.3357 11.3447 15.3517C11.3427 15.368 11.342 15.3875 11.3283 15.3987C11.3152 15.4053 11.2963 15.404 11.2856 15.3929ZM12.4736 15.0009C12.4543 15.0156 12.4371 15.0328 12.4199 15.0497C12.3962 15.0676 12.4394 15.0781 12.4448 15.0935C12.4512 15.1169 12.4508 15.1419 12.4524 15.166C12.4595 15.188 12.4627 15.2115 12.4611 15.2347C12.4591 15.2596 12.4266 15.2544 12.4124 15.2684C12.3927 15.2767 12.3848 15.296 12.3698 15.3097C12.36 15.3289 12.3574 15.3528 12.3562 15.3747C12.3575 15.3927 12.344 15.4127 12.3562 15.4284L12.3611 15.436C12.3651 15.4417 12.3748 15.4371 12.3811 15.4384C12.4012 15.4373 12.4223 15.4403 12.4411 15.4321C12.4895 15.4239 12.5384 15.4232 12.5874 15.4209C12.6174 15.4219 12.6462 15.4115 12.6762 15.4121C12.6996 15.4175 12.7102 15.392 12.7099 15.3735C12.6966 15.3473 12.708 15.3163 12.6974 15.2897C12.688 15.2628 12.6916 15.2325 12.6874 15.2047C12.6868 15.1828 12.659 15.1747 12.6448 15.1909C12.6312 15.2048 12.6091 15.2075 12.5986 15.2247C12.5868 15.2487 12.6238 15.2488 12.6299 15.2672C12.637 15.2859 12.6346 15.3064 12.6362 15.3259C12.6407 15.3496 12.615 15.3509 12.5986 15.3535C12.5772 15.3615 12.547 15.3668 12.5348 15.3409C12.5272 15.3217 12.5282 15.3012 12.5262 15.2809C12.5256 15.2452 12.517 15.2103 12.5148 15.1747C12.5128 15.1308 12.5052 15.0872 12.5024 15.0435C12.502 15.0252 12.4995 14.9955 12.4736 15.0009ZM12.4486 15.3309L12.4611 15.3323L12.4624 15.3472L12.4636 15.3621L12.4474 15.3672C12.442 15.3688 12.4366 15.37 12.4311 15.3709C12.4311 15.3709 12.4276 15.3688 12.4236 15.3659C12.4148 15.3596 12.417 15.3505 12.4286 15.3384C12.4352 15.3317 12.4382 15.3304 12.4486 15.3309ZM11.25 14.9597C11.2348 14.9651 11.2155 14.9875 11.2 14.9872C11.1648 14.9897 11.1698 15.024 11.1951 15.036C11.1983 15.0464 11.1952 15.0595 11.1963 15.0709C11.2012 15.1025 11.1812 15.128 11.185 15.1597C11.1832 15.1945 11.1727 15.2284 11.1712 15.2635C11.1614 15.2996 11.1612 15.3368 11.155 15.3735C11.151 15.4064 11.127 15.3948 11.1063 15.386C11.1062 15.3717 11.1052 15.3577 11.105 15.3435C11.1136 15.3108 11.0874 15.3012 11.0612 15.2972C11.0339 15.2999 11.0204 15.2763 11.0263 15.2523C11.038 15.2383 11.0676 15.2421 11.0863 15.2397C11.1255 15.2479 11.1239 15.1953 11.1038 15.1772C11.09 15.1519 11.0558 15.1409 11.0463 15.1148C11.0502 15.0801 11.0271 15.0455 10.9988 15.0285C10.9552 15.0255 10.9223 15.0631 10.9063 15.0997C10.8882 15.1051 10.8702 15.1104 10.8526 15.1172C10.8242 15.1244 10.7838 15.1735 10.8226 15.1923C10.8443 15.1983 10.9106 15.2133 10.8812 15.2435C10.8648 15.2717 10.8332 15.2723 10.805 15.2648C10.776 15.2648 10.7439 15.2507 10.745 15.2172C10.7391 15.1872 10.74 15.1549 10.7263 15.1272C10.7203 15.0937 10.6823 15.1015 10.68 15.1323C10.6507 15.1536 10.6547 15.1883 10.6751 15.2136C10.6878 15.2427 10.6751 15.2765 10.6626 15.3035C10.6548 15.3385 10.6163 15.3397 10.5888 15.3509C10.5752 15.3563 10.5236 15.3479 10.5426 15.3772C10.5727 15.3879 10.6087 15.3975 10.64 15.3897C10.673 15.3857 10.7015 15.3631 10.7175 15.3348C10.7396 15.3124 10.7775 15.3241 10.8063 15.3235C10.8372 15.3235 10.8688 15.3452 10.8988 15.3309C10.9075 15.3084 10.9476 15.2712 10.96 15.3097C10.9579 15.3443 10.9884 15.3628 11.02 15.3585C11.0547 15.3565 11.0418 15.3829 11.0414 15.4035C11.0436 15.4408 11.0676 15.4605 11.0987 15.476C11.1094 15.4788 11.1206 15.4779 11.1312 15.476C11.1612 15.4667 11.1934 15.4533 11.2026 15.4197C11.2146 15.3925 11.215 15.3617 11.2239 15.3335C11.2308 15.2883 11.2399 15.2431 11.2412 15.1972C11.2523 15.1557 11.2492 15.1119 11.2575 15.0697C11.2628 15.0385 11.2668 15.0072 11.27 14.976C11.2663 14.9593 11.2591 14.9565 11.25 14.9597ZM10.9788 15.126C10.9848 15.1267 10.9882 15.1341 10.9888 15.1473C10.9894 15.1617 10.9971 15.1736 11.0062 15.176C11.0136 15.1779 11.0128 15.1856 11.0051 15.1909C11.0004 15.1941 10.9922 15.196 10.9775 15.196C10.9544 15.1959 10.9402 15.1899 10.9275 15.1773L10.92 15.1697L10.9312 15.1623C10.937 15.1579 10.9472 15.1489 10.9539 15.1423C10.9652 15.1307 10.9727 15.1252 10.9788 15.126ZM13.62 14.8109C13.5977 14.812 13.5755 14.8154 13.5538 14.8209C13.5122 14.8183 13.4912 14.862 13.5312 14.8835C13.5552 14.9448 13.593 14.8708 13.6312 14.8759C13.6888 14.8871 13.6936 14.9492 13.7026 14.9959C13.7058 15.0423 13.7191 15.0872 13.7326 15.1309C13.771 15.1736 13.7038 15.2005 13.6751 15.1672C13.6506 15.1405 13.5982 15.108 13.5688 15.1447C13.5327 15.16 13.5311 15.2083 13.5012 15.2221C13.453 15.2368 13.4468 15.1775 13.4212 15.1521C13.3978 15.1192 13.3528 15.1163 13.3163 15.1047C13.2991 15.07 13.308 15.0108 13.2726 14.9872C13.2427 14.9993 13.188 15.0552 13.2339 15.0809C13.2784 15.1193 13.2143 15.1369 13.1939 15.1635C13.1646 15.196 13.1599 15.2408 13.1551 15.2821C13.1047 15.3101 13.0948 15.2507 13.0888 15.2135C13.0848 15.1689 13.0474 15.182 13.0212 15.1984C12.9832 15.2139 12.9642 15.25 12.9375 15.2784C12.9343 15.3044 12.939 15.3327 12.9388 15.3597C12.9475 15.3921 12.9868 15.3769 13.0112 15.3747C13.0504 15.3583 13.0664 15.3997 13.035 15.4235C13.0136 15.4505 12.9463 15.4364 12.9526 15.4797C12.9743 15.4823 12.997 15.4815 13.0188 15.4797C13.0624 15.4677 13.1092 15.4371 13.1138 15.3884C13.1195 15.3461 13.1804 15.3537 13.2138 15.3447C13.2554 15.3327 13.3056 15.3296 13.3151 15.3821C13.3434 15.412 13.405 15.4456 13.4363 15.4048C13.4514 15.3954 13.4636 15.382 13.4715 15.3661C13.4794 15.3502 13.4828 15.3324 13.4812 15.3147C13.4748 15.2833 13.532 15.2821 13.5463 15.2997C13.5671 15.334 13.6323 15.3239 13.6638 15.3047C13.6971 15.28 13.7044 15.2365 13.7526 15.2359C13.8238 15.2145 13.8979 15.2023 13.9675 15.1759C14.0239 15.1636 13.9591 15.128 13.945 15.1072C13.902 15.0859 13.8647 15.1728 13.8163 15.1297C13.779 15.1011 13.7814 15.0467 13.7675 15.0047C13.758 14.9504 13.7604 14.8877 13.7212 14.8447C13.6944 14.8161 13.6579 14.8092 13.62 14.8109ZM13.3475 15.1896C13.3526 15.1896 13.3582 15.192 13.3675 15.1972C13.3851 15.2068 13.3975 15.2229 13.3975 15.2359C13.3975 15.2444 13.3954 15.2451 13.3826 15.2509C13.3762 15.2543 13.3695 15.2568 13.3626 15.2584C13.3552 15.2584 13.3375 15.2441 13.3375 15.2384C13.3365 15.232 13.3349 15.2258 13.3326 15.2197C13.3278 15.2068 13.3286 15.2071 13.3351 15.1984C13.3391 15.1929 13.3426 15.1897 13.3475 15.1896ZM13.6088 15.2035C13.6236 15.2024 13.6326 15.2071 13.6388 15.2184C13.646 15.2316 13.6411 15.2417 13.6226 15.2497C13.6169 15.2524 13.611 15.2545 13.605 15.256C13.6038 15.2559 13.5971 15.2519 13.59 15.2472C13.5792 15.2401 13.5776 15.2365 13.5775 15.2285C13.5775 15.2159 13.5915 15.2045 13.6088 15.2035ZM13.2512 15.2072C13.2556 15.2065 13.2596 15.2088 13.265 15.2135C13.2722 15.2196 13.2746 15.2245 13.2763 15.2372C13.2775 15.2455 13.2775 15.2539 13.2763 15.2621C13.2743 15.2712 13.2742 15.2708 13.2538 15.2709C13.2282 15.2712 13.2258 15.2683 13.2263 15.2447C13.2266 15.2296 13.2267 15.2256 13.235 15.2172C13.2415 15.2107 13.247 15.2079 13.2512 15.2072ZM13.0312 15.2647C13.0392 15.2665 13.0468 15.2727 13.0488 15.2821C13.0515 15.2949 13.0491 15.3007 13.0388 15.3059C13.0299 15.3104 13.0095 15.312 13.0038 15.3085C13.0007 15.3066 12.9982 15.304 12.9963 15.3009C12.9936 15.2961 12.994 15.2937 12.9976 15.2909C12.9999 15.2889 13.0026 15.2861 13.0026 15.2847C13.0026 15.2833 13.0052 15.2781 13.0088 15.2735C13.0113 15.2699 13.0147 15.2672 13.0187 15.2657C13.0227 15.2641 13.027 15.2638 13.0312 15.2647ZM13.4012 15.3121C13.4084 15.3121 13.4144 15.3147 13.4188 15.3184C13.4262 15.3249 13.4259 15.3344 13.4175 15.3409C13.4122 15.3451 13.3827 15.3447 13.3726 15.3409C13.368 15.3392 13.3663 15.3369 13.3663 15.3321C13.3663 15.3265 13.3678 15.3231 13.3775 15.3184C13.3849 15.3146 13.393 15.3125 13.4012 15.3121ZM12.7144 15.5049C12.7106 15.5024 12.705 15.5003 12.7107 15.4961C12.7175 15.484 12.7314 15.4797 12.7436 15.4753C12.7655 15.4655 12.7845 15.45 12.7986 15.4305C12.8006 15.4172 12.8155 15.41 12.8155 15.3961C12.8155 15.3771 12.8167 15.3576 12.812 15.3391C12.8063 15.3224 12.7945 15.3085 12.779 15.3001C12.7687 15.2921 12.752 15.2897 12.7483 15.2755C12.7462 15.2619 12.7584 15.2515 12.7627 15.2392C12.7716 15.2223 12.7791 15.2045 12.7887 15.1881C12.7991 15.1767 12.8151 15.1875 12.8204 15.1987C12.8283 15.2096 12.8343 15.2217 12.8384 15.2345C12.8504 15.2479 12.8612 15.2633 12.8656 15.2811C12.8715 15.2935 12.881 15.3051 12.8803 15.3197C12.8803 15.3363 12.8898 15.3512 12.8892 15.3679C12.8898 15.3903 12.8898 15.4137 12.8815 15.4349C12.8759 15.4467 12.8647 15.4536 12.8572 15.4643C12.8448 15.4767 12.8302 15.4866 12.814 15.4936C12.8026 15.4973 12.7958 15.5107 12.7814 15.5075C12.7607 15.5077 12.7399 15.5105 12.7194 15.5072C12.7207 15.5095 12.7132 15.5036 12.7144 15.5049ZM12.4404 15.5229C12.4307 15.5129 12.4286 15.5087 12.4284 15.4989C12.4284 15.4891 12.4303 15.4851 12.4398 15.4755C12.4574 15.4577 12.4659 15.4573 12.4962 15.4727C12.5251 15.4873 12.5348 15.4887 12.5375 15.4783C12.5399 15.4683 12.5566 15.4591 12.5724 15.4591C12.5824 15.4591 12.588 15.4609 12.5962 15.4671C12.6062 15.4751 12.6067 15.4763 12.6068 15.4944C12.6071 15.5129 12.6068 15.5136 12.5952 15.5237C12.5842 15.5336 12.5824 15.5341 12.5686 15.5328C12.5512 15.5311 12.5406 15.5231 12.5379 15.5092C12.5358 15.4992 12.5323 15.4968 12.5296 15.5036C12.5288 15.5059 12.5244 15.5085 12.52 15.5096C12.5082 15.514 12.4974 15.5208 12.4883 15.5296C12.4846 15.5332 12.478 15.5348 12.4675 15.5349C12.4534 15.5349 12.4514 15.5341 12.4404 15.5229ZM11.6476 15.1669C11.621 15.1672 11.5924 15.1896 11.589 15.2157C11.595 15.2457 11.6199 15.2752 11.6039 15.3069C11.615 15.3475 11.5734 15.3629 11.5452 15.3395C11.528 15.3005 11.5194 15.258 11.4939 15.2232C11.4618 15.2141 11.4478 15.2655 11.4251 15.2832C11.4363 15.3133 11.469 15.3405 11.4726 15.3781C11.4804 15.4148 11.4582 15.4555 11.4264 15.4744C11.399 15.5007 11.3614 15.4912 11.3276 15.4969C11.2867 15.5209 11.3578 15.5296 11.3764 15.5307C11.4183 15.5349 11.4618 15.5293 11.4926 15.4981C11.5234 15.4835 11.521 15.4303 11.5576 15.4244C11.6211 15.4216 11.6842 15.4341 11.7476 15.4357C11.7816 15.4437 11.8342 15.4317 11.8576 15.4569C11.8576 15.5012 11.8952 15.5285 11.9314 15.5457C11.9514 15.5512 11.9723 15.5265 11.9927 15.5219C12.0314 15.5096 12.0195 15.4619 12.0426 15.4432C12.1087 15.4396 12.1752 15.4404 12.2414 15.4395C12.2539 15.4397 12.2576 15.4219 12.2664 15.4144C12.265 15.3889 12.264 15.3635 12.2602 15.3381C12.2474 15.3059 12.2622 15.2644 12.2388 15.2369C12.2056 15.2279 12.1775 15.2583 12.1439 15.2607C12.1068 15.2772 12.0756 15.3113 12.0739 15.3532C12.0519 15.3891 12.0168 15.3468 12.0288 15.3169C12.0275 15.3039 12.0316 15.2888 12.0276 15.2769C12.0074 15.2527 11.9719 15.2605 11.9439 15.2569C11.9031 15.2585 11.8634 15.2497 11.8226 15.2507C11.787 15.248 11.7498 15.2537 11.7151 15.2444C11.6738 15.2432 11.6795 15.2029 11.6726 15.1744C11.6653 15.1692 11.6565 15.1666 11.6476 15.1669ZM11.7276 15.3144C11.7414 15.3147 11.7543 15.3165 11.7676 15.3181C11.785 15.3211 11.8032 15.3123 11.8202 15.3181C11.8592 15.3248 11.8983 15.3232 11.9376 15.3269C11.948 15.3268 11.9555 15.3343 11.9627 15.3407V15.4232C11.9614 15.4335 11.9656 15.4472 11.9564 15.4544C11.9535 15.4567 11.9501 15.4585 11.9464 15.4595C11.9407 15.4581 11.9353 15.4557 11.9306 15.4523C11.9259 15.4488 11.9218 15.4445 11.9188 15.4395C11.9172 15.4252 11.9196 15.4113 11.9202 15.3969C11.9199 15.3932 11.9218 15.3875 11.9202 15.3844C11.9118 15.3781 11.9018 15.3746 11.8914 15.3744C11.8574 15.3733 11.8242 15.3708 11.79 15.3695C11.7619 15.3676 11.7327 15.3719 11.7051 15.3644C11.6944 15.3605 11.6804 15.3619 11.6739 15.3507C11.6646 15.3397 11.678 15.3268 11.6876 15.3219C11.7002 15.3164 11.7139 15.3138 11.7276 15.3144ZM12.1788 15.3244C12.1852 15.3244 12.1872 15.3264 12.1902 15.3381C12.1919 15.3457 12.1942 15.3549 12.1951 15.3581C12.1966 15.3629 12.1943 15.3644 12.1876 15.3669C12.1679 15.3744 12.1482 15.3736 12.1414 15.3644C12.1383 15.3603 12.1419 15.3471 12.1476 15.342C12.1592 15.3316 12.172 15.3244 12.1788 15.3244Z" fill="#C09300"/>
<path fill-rule="evenodd" clip-rule="evenodd" d="M11.9992 13.0625C13.3049 12.0583 13.1929 10.5872 13.1929 10.5872C13.1595 10.5941 13.1255 10.5976 13.0913 10.5976C12.8175 10.5976 12.1641 10.4408 12.0117 10.2419C11.8485 10.4219 11.1811 10.5976 10.9088 10.5976C10.8744 10.5976 10.8399 10.5941 10.8072 10.5872C10.8072 10.5872 10.6935 12.0583 11.9992 13.0625Z" fill="white"/>
<path fill-rule="evenodd" clip-rule="evenodd" d="M12.7369 12.2949C12.946 11.9656 13.0907 11.5995 13.1635 11.2163C13.2106 10.9723 13.2234 10.7635 13.2171 10.6092C13.2167 10.5976 13.2139 10.5596 13.2139 10.5596C13.2139 10.5596 13.1238 10.5745 13.0913 10.5745C12.7622 10.5745 12.159 10.3961 12.0301 10.2279L12.0133 10.206L11.9947 10.2264C11.8521 10.3837 11.2165 10.5745 10.9089 10.5745C10.8758 10.5745 10.7863 10.5593 10.7863 10.5593C10.7863 10.5593 10.7835 10.598 10.783 10.6097C10.7767 10.7645 10.7894 10.9737 10.8363 11.2175C10.9088 11.6003 11.0532 11.966 11.2619 12.2951C11.4482 12.5876 11.6875 12.8517 11.9853 13.0808H12.0133C12.311 12.8517 12.5505 12.5875 12.7369 12.2949ZM11.9993 13.0395C11.7237 12.8151 11.4586 12.5183 11.3007 12.2703C11.0952 11.9461 10.9529 11.5859 10.8815 11.2088C10.8353 10.9687 10.8229 10.7631 10.829 10.6116C10.8529 10.6205 10.8726 10.6205 10.909 10.6205C11.2281 10.6205 11.8538 10.4501 12.0087 10.2739C12.1734 10.4501 12.7605 10.6205 13.0914 10.6205C13.1269 10.6205 13.1713 10.6111 13.1713 10.6111C13.1773 10.762 13.1647 10.9673 13.1183 11.2075C13.0466 11.5851 12.904 11.9456 12.6981 12.2701C12.5145 12.5584 12.2787 12.8151 11.9993 13.0395ZM13.055 10.6777C12.7545 10.6777 12.2119 10.5288 12.0199 10.3639L12.0087 10.3541L11.9969 10.3631C11.7902 10.5197 11.2242 10.6777 10.9449 10.6777C10.9355 10.6777 10.9257 10.6767 10.9142 10.6745L10.8929 10.6705L10.8926 10.6924C10.8924 10.7481 10.8944 10.8039 10.8985 10.8595C10.9113 11.0541 10.9453 11.252 10.9985 11.4452C11.1635 12.0433 11.5013 12.5535 11.9878 12.9409L11.9991 12.95L12.0105 12.9409C12.4973 12.5532 12.8354 12.0425 13.0007 11.444C13.0541 11.2508 13.0883 11.0529 13.1013 10.8583C13.1054 10.7948 13.1075 10.7433 13.1071 10.6948V10.6745C13.1071 10.6745 13.0659 10.6777 13.055 10.6777Z" fill="#C09300"/>
<path fill-rule="evenodd" clip-rule="evenodd" d="M11.5752 12.4848C11.7001 12.6368 11.8419 12.7768 11.9999 12.9037C12.1454 12.7865 12.2793 12.6557 12.4 12.5131V10.5909C12.2391 10.5376 12.0943 10.4712 12.0072 10.4011C11.9133 10.4749 11.7515 10.5445 11.5752 10.5993V12.4848Z" fill="white"/>
<path fill-rule="evenodd" clip-rule="evenodd" d="M12.6115 10.0431C12.671 10.0554 12.7313 10.0637 12.792 10.0679L12.9289 10.0768L12.8033 10.0213C12.6543 9.95547 12.4985 9.428 12.5167 9.01587C12.5316 8.64827 12.4791 8.43374 12.3857 8.3404C12.3056 8.2604 12.0524 8.184 11.8633 8.17334C11.8103 8.17067 11.7763 8.19027 11.7627 8.22467C11.7567 8.24 11.7571 8.23867 11.7571 8.23867C11.5652 8.1928 11.4111 8.1888 11.334 8.24014C11.2921 8.26814 11.2647 8.3416 11.2564 8.42187C11.2529 8.4568 11.2539 8.48827 11.2599 8.5096C11.2693 8.5436 11.2975 8.56 11.3267 8.53667C11.4283 8.45534 11.5255 8.49987 11.6208 8.638C11.6891 8.73667 11.6775 9.02734 11.5815 9.34494C11.5447 9.46707 11.4832 9.59774 11.4039 9.7316C11.3388 9.84085 11.2665 9.94566 11.1876 10.0453L11.1548 10.0852H11.2064C11.2424 10.0852 11.2824 10.0785 11.326 10.0661C11.3742 10.0519 11.4213 10.0339 11.4667 10.0123C11.5003 9.99654 11.5505 9.9692 11.5505 9.9692L11.5105 10.1351L11.4985 10.1848L11.5447 10.1628C11.5867 10.1428 11.6287 10.1191 11.6701 10.0925C11.7172 10.0624 11.7612 10.0303 11.8011 9.99814C11.8151 9.9868 11.8355 9.97107 11.8355 9.97107L11.9776 10.1216L11.9973 10.1423L12.0147 10.1195C12.0251 10.1057 12.0693 10.0557 12.078 10.0467C12.0985 10.0253 12.1204 10.0033 12.1424 9.9824C12.1556 9.96974 12.1557 9.97107 12.1557 9.97107L12.1669 9.9808C12.1903 10.0007 12.2173 10.0204 12.2477 10.0388C12.3211 10.0833 12.4024 10.1131 12.4901 10.1212C12.5219 10.1231 12.5268 10.1003 12.5221 10.0712C12.5186 10.053 12.5136 10.035 12.5072 10.0176C12.5051 10.0116 12.5299 10.0259 12.6115 10.0429V10.0431Z" fill="white"/>
<path fill-rule="evenodd" clip-rule="evenodd" d="M11.5696 9.902C11.5491 9.91374 11.4749 9.95467 11.446 9.96814C11.403 9.9887 11.3584 10.0058 11.3127 10.0193C11.2732 10.0305 11.2597 10.0321 11.2597 10.0321C11.2597 10.0321 11.2821 10.0024 11.2944 9.98587C11.3484 9.9118 11.3989 9.83522 11.4457 9.7564C11.5269 9.61947 11.59 9.48534 11.628 9.35907C11.7081 9.094 11.732 8.84667 11.6973 8.69974C11.7016 8.6948 11.7067 8.68947 11.7131 8.684C11.7397 8.66054 11.8511 8.6856 11.8511 8.6856C11.7004 8.42827 11.5295 8.3672 11.4543 8.37187C11.3847 8.37534 11.3416 8.44854 11.3227 8.48987C11.3167 8.49494 11.3107 8.50054 11.3049 8.50654C11.3049 8.50654 11.3019 8.45614 11.3049 8.4268C11.3083 8.38687 11.3189 8.34788 11.3363 8.31174C11.3599 8.29667 11.3949 8.282 11.4451 8.27787C11.5611 8.27 11.5956 8.2872 11.6851 8.35787C11.7744 8.42854 11.8449 8.46294 11.8888 8.4552C11.9029 8.45347 11.9108 8.47867 11.9248 8.49587C11.9359 8.5084 11.9328 8.51934 11.9751 8.51934C12.0017 8.51934 12.0159 8.4676 12.0331 8.45347C12.0551 8.43614 12.0957 8.4284 12.1224 8.42214C12.1789 8.408 12.2056 8.4096 12.248 8.4048C12.2684 8.40254 12.3388 8.40014 12.3881 8.42387C12.4472 8.52574 12.4801 8.71587 12.4681 9.01374C12.4491 9.44414 12.5892 9.89907 12.7148 10.0111C12.6835 10.007 12.6523 10.0018 12.6215 9.99534C12.5523 9.9808 12.5009 9.96187 12.4771 9.94027C12.4265 9.866 12.3852 9.738 12.3527 9.57254C12.3329 9.46957 12.3178 9.36578 12.3072 9.26147C12.3023 9.21444 12.2982 9.16732 12.2949 9.12014L12.2443 9.1232L12.2471 9.16294C12.2495 9.19427 12.2527 9.2292 12.2567 9.2668C12.2679 9.37427 12.2831 9.48174 12.3028 9.58227C12.3365 9.75414 12.3799 9.88747 12.4352 9.9688L12.4357 9.9684L12.4744 10.0704C12.4029 10.0601 12.3344 10.0351 12.2731 9.99707C12.2468 9.98129 12.2218 9.96345 12.1984 9.94374C12.1912 9.93734 12.1842 9.93071 12.1775 9.92387C12.162 9.8728 12.1505 9.72654 12.1437 9.5196C12.1391 9.37503 12.1367 9.23039 12.1367 9.08574H12.0857C12.0857 9.13107 12.086 9.17641 12.0867 9.22174C12.0879 9.32387 12.0899 9.426 12.0929 9.5212C12.0996 9.7244 12.1103 9.86694 12.1265 9.93054C12.0888 9.96578 12.0523 10.0024 12.0173 10.0404C12.0092 10.0493 12.0013 10.0584 11.9936 10.0677L11.8657 9.9336C11.9061 9.8504 11.9384 9.7128 11.9644 9.53427C11.9796 9.43054 11.9916 9.31947 12.0009 9.2084C12.005 9.15907 12.0085 9.10969 12.0113 9.06027L11.9607 9.0576L11.9581 9.09787C11.9486 9.24137 11.9339 9.38449 11.9141 9.52694C11.8877 9.70854 11.8544 9.84667 11.8149 9.9216C11.8003 9.9347 11.7854 9.94759 11.7704 9.96027C11.7319 9.99134 11.6893 10.0224 11.6439 10.0515C11.6039 10.0771 11.5705 10.0937 11.5705 10.0937L11.6092 9.934C11.6743 9.85934 11.7307 9.71854 11.7805 9.52894C11.8181 9.3808 11.8479 9.23082 11.87 9.0796L11.8196 9.07267C11.8187 9.0796 11.8169 9.09254 11.814 9.11067C11.7928 9.24701 11.7652 9.38227 11.7313 9.516C11.6831 9.69974 11.6284 9.83587 11.5696 9.902ZM12.6115 10.0431C12.671 10.0554 12.7313 10.0637 12.792 10.0679L12.9289 10.0768L12.8033 10.0213C12.6543 9.95547 12.4985 9.428 12.5167 9.01587C12.5316 8.64827 12.4791 8.43374 12.3857 8.3404C12.3056 8.2604 12.0524 8.184 11.8633 8.17334C11.8103 8.17067 11.7763 8.19027 11.7627 8.22467C11.7567 8.24 11.7571 8.23867 11.7571 8.23867C11.5652 8.1928 11.4111 8.1888 11.334 8.24014C11.2921 8.26814 11.2647 8.3416 11.2564 8.42187C11.2529 8.4568 11.2539 8.48827 11.2599 8.5096C11.2693 8.5436 11.2975 8.56 11.3267 8.53667C11.4283 8.45534 11.5255 8.49987 11.6208 8.638C11.6891 8.73667 11.6775 9.02734 11.5815 9.34494C11.5447 9.46707 11.4832 9.59774 11.4039 9.7316C11.3388 9.84085 11.2665 9.94566 11.1876 10.0453L11.1548 10.0852H11.2064C11.2424 10.0852 11.2824 10.0785 11.326 10.0661C11.3742 10.0519 11.4213 10.0339 11.4667 10.0123C11.5003 9.99654 11.5505 9.9692 11.5505 9.9692L11.5105 10.1351L11.4985 10.1848L11.5447 10.1628C11.5867 10.1428 11.6287 10.1191 11.6701 10.0925C11.7172 10.0624 11.7612 10.0303 11.8011 9.99814C11.8151 9.9868 11.8355 9.97107 11.8355 9.97107L11.9776 10.1216L11.9973 10.1423L12.0147 10.1195C12.0251 10.1057 12.0693 10.0557 12.078 10.0467C12.0985 10.0253 12.1204 10.0033 12.1424 9.9824C12.1556 9.96974 12.1557 9.97107 12.1557 9.97107L12.1669 9.9808C12.1903 10.0007 12.2173 10.0204 12.2477 10.0388C12.3211 10.0833 12.4024 10.1131 12.4901 10.1212C12.5219 10.1231 12.5268 10.1003 12.5221 10.0712C12.5186 10.053 12.5136 10.035 12.5072 10.0176C12.5051 10.0116 12.5299 10.0259 12.6115 10.0429V10.0431Z" fill="#C09300"/>
<path d="M11.9528 8.44734C11.9788 8.44734 11.9999 8.42627 11.9999 8.40028C11.9999 8.37428 11.9788 8.35321 11.9528 8.35321C11.9268 8.35321 11.9058 8.37428 11.9058 8.40028C11.9058 8.42627 11.9268 8.44734 11.9528 8.44734Z" fill="white"/>
</g>
<defs>
<clipPath id="clip0_1_149">
<rect width="24" height="24" fill="white"/>
</clipPath>
</defs>
</svg>
