<svg width="24" height="24" viewBox="0 0 24 24" fill="none" xmlns="http://www.w3.org/2000/svg">
<path d="M16.96 6.17001C18.96 7.56001 20.3401 9.77001 20.6201 12.32M3.49005 12.37C3.61577 11.1472 4.00216 9.96552 4.62316 8.90464C5.24416 7.84376 6.08535 6.92832 7.09005 6.22001M8.19005 20.94C9.35005 21.53 10.67 21.86 12.06 21.86C13.4 21.86 14.66 21.56 15.79 21.01M12.06 7.70001C12.7974 7.70001 13.5045 7.40712 14.0258 6.88577C14.5472 6.36442 14.84 5.65732 14.84 4.92001C14.84 4.18271 14.5472 3.47561 14.0258 2.95426C13.5045 2.43291 12.7974 2.14001 12.06 2.14001C11.3227 2.14001 10.6156 2.43291 10.0943 2.95426C9.57294 3.47561 9.28005 4.18271 9.28005 4.92001C9.28005 5.65732 9.57294 6.36442 10.0943 6.88577C10.6156 7.40712 11.3227 7.70001 12.06 7.70001V7.70001ZM4.83005 19.92C5.56735 19.92 6.27445 19.6271 6.79581 19.1058C7.31716 18.5844 7.61005 17.8773 7.61005 17.14C7.61005 16.4027 7.31716 15.6956 6.79581 15.1743C6.27445 14.6529 5.56735 14.36 4.83005 14.36C4.09275 14.36 3.38564 14.6529 2.86429 15.1743C2.34294 15.6956 2.05005 16.4027 2.05005 17.14C2.05005 17.8773 2.34294 18.5844 2.86429 19.1058C3.38564 19.6271 4.09275 19.92 4.83005 19.92V19.92ZM19.17 19.92C19.9074 19.92 20.6145 19.6271 21.1358 19.1058C21.6572 18.5844 21.9501 17.8773 21.9501 17.14C21.9501 16.4027 21.6572 15.6956 21.1358 15.1743C20.6145 14.6529 19.9074 14.36 19.17 14.36C18.4327 14.36 17.7256 14.6529 17.2043 15.1743C16.6829 15.6956 16.39 16.4027 16.39 17.14C16.39 17.8773 16.6829 18.5844 17.2043 19.1058C17.7256 19.6271 18.4327 19.92 19.17 19.92V19.92Z" stroke="#101010" stroke-width="1.5" stroke-linecap="round" stroke-linejoin="round"/>
</svg>
