<svg width="16" height="16" viewBox="0 0 16 16" fill="none" xmlns="http://www.w3.org/2000/svg">
<path fill-rule="evenodd" clip-rule="evenodd" d="M6.73359 3.59979C6.92886 3.79505 6.92886 4.11163 6.73359 4.30689L3.54048 7.5H13.6667C13.9428 7.5 14.1667 7.72386 14.1667 8C14.1667 8.27615 13.9428 8.5 13.6667 8.5H3.54048L6.73359 11.6931C6.92886 11.8884 6.92886 12.205 6.73359 12.4002C6.53833 12.5955 6.22175 12.5955 6.02649 12.4002L1.97982 8.35356C1.88605 8.25979 1.83337 8.13261 1.83337 8C1.83337 7.8674 1.88605 7.74022 1.97982 7.64645L6.02649 3.59979C6.22175 3.40452 6.53833 3.40452 6.73359 3.59979Z" fill="white"/>
</svg>
