<svg width="98" height="120" viewBox="0 0 98 120" fill="none" xmlns="http://www.w3.org/2000/svg">
<g filter="url(#filter0_d_1_792)">
<path d="M43.6869 15C46.9988 21.2903 56.8199 30.9597 69.2054 30.9597C70.1623 30.9597 71.1348 30.9021 72.1205 30.7805C74.922 66.0869 53.7726 87.3825 43.6869 95C33.601 87.3825 12.4516 66.0869 15.2533 30.7805C16.2398 30.9021 17.2107 30.9597 18.1682 30.9597C30.5526 30.9597 40.3754 21.2899 43.6869 15Z" fill="#D1232A"/>
<path d="M43.6868 18.7715C39.1226 25.1467 29.7215 32.9791 18.1682 32.9791C17.8163 32.9791 17.463 32.9718 17.1094 32.9572C16.7178 40.2604 17.3632 47.3798 19.033 54.1494C20.5899 60.4618 23.0551 66.5523 26.3596 72.2516C29.0637 76.9154 32.3245 81.3171 36.0513 85.3349C38.9602 88.4708 41.6617 90.8383 43.687 92.4539C45.7124 90.8383 48.4138 88.4708 51.3225 85.3349C55.0493 81.3171 58.3101 76.9154 61.0142 72.2516C64.3187 66.5523 66.7838 60.4618 68.3408 54.1494C70.0105 47.3798 70.6558 40.2604 70.2642 32.9572C69.9107 32.9718 69.5575 32.9791 69.2053 32.9791C57.6521 32.9791 48.2508 25.1467 43.6868 18.7715Z" fill="white"/>
<path d="M43.687 22.0742C38.5461 28.2582 29.7935 34.6614 19.0247 34.9862C18.8438 41.4154 19.4954 47.6806 20.9704 53.6607C22.4812 59.7859 24.8738 65.697 28.0819 71.23C30.7109 75.7641 33.8821 80.0448 37.5074 83.9531C39.7784 86.4014 41.9161 88.3653 43.687 89.8549C45.4578 88.3651 47.5956 86.4013 49.8666 83.9531C53.4919 80.0448 56.6629 75.7641 59.292 71.23C62.5001 65.697 64.8928 59.7859 66.4034 53.6607C67.8786 47.6804 68.5301 41.4153 68.349 34.9862C57.5804 34.6614 48.828 28.2581 43.687 22.0742Z" fill="#D1232A"/>
<path d="M28.1628 58.9632H59.2106V61.7854H61.6863C64.8379 53.9634 66.4116 45.6335 66.3835 36.8861C56.8312 35.9898 48.9155 30.6711 43.6868 25.0862C38.4581 30.6711 30.5421 35.9898 20.9899 36.8861C20.9615 45.6335 22.5356 53.9634 25.6873 61.7854H28.1628V58.9632Z" fill="white"/>
<path d="M57.214 60.9827H30.1593V61.7858H57.214V60.9827Z" fill="white"/>
<path d="M29.8039 70.2091C32.3578 74.6137 35.4394 78.7731 38.9631 82.5719C40.6482 84.3887 42.2563 85.9293 43.6866 87.1993C45.117 85.9293 46.7248 84.3887 48.4101 82.5719C51.9338 78.7731 55.0154 74.6137 57.5694 70.2091C58.7823 68.1172 59.8686 65.9819 60.832 63.8064H26.5413C27.5049 65.9819 28.5911 68.1172 29.8039 70.2091Z" fill="white"/>
<path d="M45.1967 64.7109H43.9738V77.0307H45.1967V64.7109Z" fill="black"/>
<path d="M54.6063 66.3258V69.7321L53.1273 72.0558V64.7109H51.9046V76.8852L56.1115 70.2755V66.3258H54.6063Z" fill="black"/>
<path d="M39.781 76.7026V73.875H37.9839V64.7109H36.9608V75.5665H38.2086L38.7077 76.7026H39.781Z" fill="black"/>
<path d="M42.1767 74.9774H40.7623V79.9425L39.0081 78.1584V77.6704H38.3829V79.6058L41.7108 83.5442H42.2931V77.0307H43.3996V64.7109H42.1767V74.9774Z" fill="black"/>
<path d="M35.0514 71.5861L34.5736 71.3095V64.7109H33.4256V69.1459L31.4165 66.1118V65.6538H32.6719L32.7954 64.7109H29.1324L29.1942 65.3625L35.594 75.895H36.1993V64.7109H35.0514V71.5861Z" fill="black"/>
<path d="M40.8504 70.9495H39.739V72.0349H40.8504V70.9495Z" fill="black"/>
<path d="M45.8375 74.6066H47.4639V79.7903L45.1968 82.0836V79.2014H43.9738V86.1144L48.7617 81.2716V72.5533H46.8689V70.7525H48.7617V69.1872H45.8375V74.6066Z" fill="black"/>
<path d="M55.8891 64.7087H54.837L54.6953 65.8751H55.8891V64.7087Z" fill="black"/>
<path d="M50.3411 75.8158L49.3711 76.9611V80.5519L51.5641 77.9626V69.1872H50.3411V75.8158Z" fill="black"/>
<path d="M58.336 57.9443C58.336 57.5745 58.336 57.2753 57.6745 57.2753C55.8936 57.2753 54.6269 56.5231 53.844 55.9998C52.8193 55.3147 50.0859 52.4747 46.5555 46.0709C47.1318 44.5388 48.0282 41.7477 48.0282 39.2121C48.0282 39.1902 48.0271 39.1677 48.0268 39.1456L49.3682 38.9374L49.326 40.0032L54.3845 37.546L49.06 36.94L49.2501 37.7297L47.8625 37.9451C47.4539 36.2593 46.3585 34.4405 45.3666 33.2685C44.2166 31.9098 43.0515 30.7949 43.5692 28.5078C43.5692 28.5078 42.9921 28.5078 42.1382 29.9048L36.2413 39.5528C35.8722 39.7115 35.37 39.8712 35.5328 39.4981C35.5328 39.4981 35.2914 39.5232 35.3663 38.707C35.0444 38.707 34.7839 38.5218 34.7839 38.5218L34.8759 38.0565C35.0947 37.9499 35.2829 37.8363 35.3663 37.7307C34.967 37.4109 34.4666 36.4684 33.9854 36.1318C33.9383 35.7587 34.1351 35.4418 34.1351 35.4418L33.8023 34.8695C33.1947 34.9099 32.5694 34.7518 31.8889 34.7518C30.884 34.7518 29.6198 35.4017 29.0796 36.073C27.9513 37.4753 27.998 39.8036 28.1722 42.5429C27.4853 43.0318 26.3308 43.9645 26.3308 44.7115C26.3308 45.6913 27.4557 45.7679 30.4184 45.5591C32.6123 47.5306 33.5743 49.383 33.3863 53.501C33.3863 53.501 33.9647 53.8801 34.8866 54.236C34.979 54.3473 35.0912 54.479 35.2218 54.6271C35.5593 56.0342 34.0832 56.2904 34.0832 57.0005C34.0832 57.9786 34.5144 57.5724 34.6931 58.9638H37.5111C37.2105 58.208 36.6516 57.797 36.6516 57.5376C36.6516 57.316 36.9164 57.1362 37.9141 57.129C39.4039 58.2427 41.2735 59.2114 43.2707 59.2114C44.7418 59.2114 45.514 58.3461 45.514 57.2771C45.514 55.9863 44.0724 53.8579 43.2737 52.7779C44.2329 51.6938 44.8588 50.4213 44.8588 50.4213L45.3329 50.5728C45.3329 50.5728 46.6307 53.148 49.8254 55.1928C50.1186 56.2116 50.7739 57.0359 50.7739 57.0359C50.949 58.0951 51.4069 58.7393 51.5922 58.9641H56.8638C57.7304 58.7928 58.336 58.4011 58.336 57.9443ZM36.8787 39.5908L42.4709 30.6791C42.4709 30.6791 43.1116 31.3113 43.1116 32.0928C44.4098 33.406 45.3632 35.2202 45.8787 37.3245C44.3986 38.4248 43.0625 38.6003 41.2435 38.853C40.0331 39.0212 39.2174 40.0322 36.9003 39.9089L36.8787 39.5908ZM38.7107 48.2836C37.7268 47.4719 37.2495 46.3487 37.031 43.3099L42.9695 46.3013C42.5712 47.1711 40.1839 48.2836 38.7107 48.2836ZM45.691 45.7427C45.2523 45.8832 44.5894 46.0371 43.8141 46.0254L37.9691 43.0811L37.6412 42.4174C39.4005 41.9918 40.6208 41.9586 41.5308 41.5515C42.9646 40.9101 43.8996 40.2894 46.305 40.4788C46.3629 42.1603 46.1704 43.9407 45.691 45.7427Z" fill="black"/>
<path d="M31.082 41.2319C31.0821 40.3717 30.9688 38.7833 30.9685 37.8268C30.9685 37.6335 30.9733 37.4654 30.985 37.3296C31.0002 37.1904 31.0068 37.0964 31.0649 36.9923C31.215 36.7538 31.4919 36.5314 31.8265 36.3193C32.1608 36.1094 32.5515 35.919 32.9229 35.7871L33.0388 36.1205C32.6945 36.2427 32.3214 36.4241 32.0109 36.6195C31.7028 36.8111 31.4549 37.026 31.3634 37.1765C31.363 37.1774 31.3621 37.1795 31.361 37.1827C31.3586 37.1902 31.3551 37.2028 31.3516 37.2193C31.3448 37.2527 31.3381 37.3013 31.3331 37.3604C31.3227 37.4788 31.3181 37.6395 31.3181 37.827C31.318 38.7615 31.4313 40.3487 31.4316 41.2321H31.082V41.2319Z" fill="white"/>
<path d="M35.8561 44.6107C35.6239 44.4559 35.4087 44.3695 35.2189 44.3249C34.928 44.259 34.7503 44.2664 34.553 44.2059C34.4 44.1608 34.205 44.0763 33.9211 43.8767L33.6134 44.6401C33.841 44.7868 34.0403 44.8836 34.2228 44.9472C34.4461 45.0255 34.6369 45.0502 34.7834 45.0695C35.0077 45.1008 35.1158 45.11 35.3401 45.2377C35.5374 45.3524 35.8213 45.5828 36.2346 46.0313L36.3006 44.9628C36.1402 44.8177 35.9936 44.702 35.8561 44.6107Z" fill="white"/>
<path d="M40.5909 50.842C40.5909 50.5222 38.245 48.8728 38.245 48.8728C38.245 48.8728 37.8955 49.0579 37.8955 49.5123C37.8955 49.5123 39.6093 51.0103 40.3582 51.0103C40.4867 51.0103 40.5909 50.935 40.5909 50.842Z" fill="white"/>
<path d="M37.8603 54.3308C37.8589 54.1946 37.9887 54.1137 37.7425 54.1164C37.4678 54.1195 37.4771 53.9668 37.2903 53.7852C36.8985 54.1173 37.5842 54.4123 37.8603 54.3308Z" fill="#B3B3B3"/>
<path d="M36.3302 54.2093C36.465 54.0036 36.1059 53.6191 35.8801 53.7848C35.9556 54.0017 36.0984 54.1503 36.3302 54.2093Z" fill="#B3B3B3"/>
<path d="M38.9404 53.9069C39.2693 53.9524 38.7664 53.3708 38.7604 53.3613C38.2284 53.5742 38.8406 53.7366 38.9404 53.9069Z" fill="#B3B3B3"/>
<path d="M39.9902 53.3007C40.2041 52.972 39.8911 52.5042 39.5102 52.6034C39.572 52.8949 39.8539 53.011 39.9902 53.3007Z" fill="#B3B3B3"/>
<path d="M34.8607 53.4517C34.7291 53.2006 34.5411 53.0741 34.5907 52.7549C34.7873 52.702 34.7933 52.9837 34.8705 53.0782C34.9037 53.1442 34.9405 53.2081 34.9807 53.27C35.1047 53.2921 35.2933 53.2966 35.3707 53.4214C35.704 53.4214 36.0374 53.4214 36.3707 53.4214C36.7302 53.4214 36.954 53.3298 37.2708 53.2918C37.5315 53.2606 37.7664 53.1465 38.0106 53.0579C38.2323 52.9772 38.4597 52.9876 38.6597 52.8775C38.9136 52.7377 39.0411 52.7284 39.2705 52.5127C39.301 52.3218 39.3078 52.0009 39.5405 51.937C39.7369 52.0661 39.542 52.1492 39.9004 52.1492C39.8457 51.929 39.6683 51.7707 39.6305 51.5434C39.5317 51.5281 39.5494 51.6494 39.4505 51.6343C39.3497 51.449 39.2282 51.2761 39.0919 51.116C38.7771 50.7458 38.3903 50.4486 38.0024 50.1619C37.6952 49.9349 37.1736 49.3417 36.8153 49.4536C36.4176 49.578 35.7209 49.6022 35.3942 49.8227C35.1621 49.9792 35.0306 50.2685 34.7593 50.3693C34.5709 50.4392 34.4604 50.3281 34.3132 50.5037C34.1714 50.6724 34.1757 50.9028 34.2089 51.1083C34.2505 51.3659 34.2833 52.0042 34.5308 52.1192C34.4876 52.2507 34.5512 52.3215 34.6156 52.422C34.7096 52.5687 34.4841 52.6308 34.4708 52.3917C34.3004 52.4585 34.2042 52.4973 34.2006 52.2709C34.1978 52.164 34.1416 52.1359 34.0321 52.1864C33.7718 52.1496 33.9383 52.4888 33.9741 52.6134C34.0856 53.0019 34.2123 53.9924 34.8607 53.4517Z" fill="white"/>
</g>
<defs>
<filter id="filter0_d_1_792" x="0" y="0" width="97.3737" height="120" filterUnits="userSpaceOnUse" color-interpolation-filters="sRGB">
<feFlood flood-opacity="0" result="BackgroundImageFix"/>
<feColorMatrix in="SourceAlpha" type="matrix" values="0 0 0 0 0 0 0 0 0 0 0 0 0 0 0 0 0 0 127 0" result="hardAlpha"/>
<feOffset dx="5" dy="5"/>
<feGaussianBlur stdDeviation="10"/>
<feComposite in2="hardAlpha" operator="out"/>
<feColorMatrix type="matrix" values="0 0 0 0 0 0 0 0 0 0 0 0 0 0 0 0 0 0 0.15 0"/>
<feBlend mode="normal" in2="BackgroundImageFix" result="effect1_dropShadow_1_792"/>
<feBlend mode="normal" in="SourceGraphic" in2="effect1_dropShadow_1_792" result="shape"/>
</filter>
</defs>
</svg>
