<svg width="20" height="20" viewBox="0 0 20 20" fill="none" xmlns="http://www.w3.org/2000/svg">
<path d="M14.4833 17.2917H9.09167C8.75001 17.2917 8.46667 17.0083 8.46667 16.6667C8.46667 16.325 8.75001 16.0417 9.09167 16.0417H14.4833C17.0333 16.0417 17.6333 15.625 17.7 13.3583C16.6 13.075 15.7833 12.075 15.7833 10.8917C15.7833 9.70001 16.6 8.69167 17.7083 8.40834V8.19167C17.7083 5.45001 17.225 4.96667 14.4833 4.96667H9.79167V10C9.79167 10.3417 9.50834 10.625 9.16667 10.625C8.82501 10.625 8.54167 10.3417 8.54167 10V4.34167C8.54167 4.00001 8.82501 3.71667 9.16667 3.71667H14.4833C17.9167 3.71667 18.9583 4.75834 18.9583 8.19167V8.95834C18.9583 9.30001 18.675 9.58334 18.3333 9.58334C17.6167 9.58334 17.0333 10.1667 17.0333 10.8917C17.0333 11.6083 17.6167 12.1917 18.3333 12.1917C18.675 12.1917 18.9583 12.475 18.9583 12.8167C18.9583 16.25 17.9167 17.2917 14.4833 17.2917Z" fill="#8E8EA9"/>
<path d="M9.16666 17.2917H6.85833C5.175 17.2917 4.30833 16.025 3.51666 14.125L3.35833 13.7417C3.3 13.5917 3.3 13.4167 3.36666 13.2667C3.43333 13.1167 3.55833 12.9917 3.70833 12.9333C4.04166 12.8 4.3 12.5417 4.44166 12.2167C4.58333 11.8833 4.58333 11.5167 4.44166 11.1833C4.16666 10.4833 3.375 10.1583 2.675 10.4333C2.51666 10.5 2.35 10.4917 2.19166 10.425C2.04166 10.3583 1.91666 10.2333 1.85833 10.0833L1.71666 9.725C0.38333 6.48333 0.966664 5.09166 4.20833 3.75L6.40833 2.85C6.725 2.71666 7.09166 2.875 7.225 3.19166L9.75 9.30833C9.78333 9.38333 9.8 9.46666 9.8 9.55V11.6667C9.8 12.0083 9.51666 12.2917 9.175 12.2917C8.83333 12.2917 8.55 12.0083 8.55 11.6667V9.66666L6.3 4.24166L4.68333 4.90833C2.11666 5.96666 1.80833 6.61666 2.81666 9.11666C3.975 8.95 5.14166 9.575 5.6 10.7C5.86666 11.3417 5.86666 12.05 5.59166 12.6917C5.40833 13.1333 5.10833 13.5083 4.725 13.7833C5.525 15.6667 6.10833 16.0417 6.85 16.0417H8.53333V14.1667C8.53333 13.825 8.81666 13.5417 9.15833 13.5417C9.5 13.5417 9.78333 13.825 9.78333 14.1667V16.6667C9.79166 17.0083 9.50833 17.2917 9.16666 17.2917Z" fill="#8E8EA9"/>
<path d="M6.80829 17.2917H6.66663C6.32496 17.2917 6.04163 17.0084 6.04163 16.6667C6.04163 16.325 6.32496 16.0417 6.66663 16.0417H6.80829C7.14996 16.0417 7.43329 16.325 7.43329 16.6667C7.43329 17.0084 7.14996 17.2917 6.80829 17.2917Z" fill="#8E8EA9"/>
</svg>
