<svg width="24" height="24" viewBox="0 0 24 24" fill="none" xmlns="http://www.w3.org/2000/svg">
<path d="M21.687 6.43795C20.1955 4.94644 18.2202 4.125 16.125 4.125H7.875C5.77978 4.125 3.80452 4.94644 2.31295 6.43795C0.821391 7.92947 0 9.90478 0 12C0 14.0952 0.821437 16.0705 2.31295 17.562C3.80447 19.0536 5.77978 19.875 7.875 19.875H16.125C18.2202 19.875 20.1955 19.0536 21.687 17.562C23.1786 16.0705 24 14.0952 24 12C24 9.90478 23.1786 7.92952 21.687 6.43795ZM21.1567 17.0317C19.8068 18.3816 18.0199 19.125 16.125 19.125H7.875C5.98012 19.125 4.19316 18.3816 2.8433 17.0317C1.49344 15.6818 0.75 13.8949 0.75 12C0.75 10.1051 1.49339 8.31816 2.8433 6.9683C4.1932 5.61844 5.98012 4.875 7.875 4.875H16.125C18.0199 4.875 19.8068 5.61839 21.1567 6.9683C22.5066 8.3182 23.25 10.1051 23.25 12C23.25 13.8949 22.5066 15.6818 21.1567 17.0317Z" fill="white"/>
<path d="M5.625 7.125C5.00466 7.125 4.5 7.62965 4.5 8.25V15.75C4.5 16.3703 5.00466 16.875 5.625 16.875H18.375C18.9953 16.875 19.5 16.3703 19.5 15.75V8.25C19.5 7.62965 18.9953 7.125 18.375 7.125H5.625ZM11.625 13.8373C10.7702 13.6631 10.125 12.9055 10.125 12C10.125 11.0945 10.7702 10.3369 11.625 10.1627V13.8373ZM12.375 10.1627C13.2298 10.3369 13.875 11.0945 13.875 12C13.875 12.9055 13.2298 13.6631 12.375 13.8373V10.1627ZM5.25 10.125H6.75V13.875H5.25V10.125ZM5.25 15.75V14.625H7.125C7.22446 14.625 7.31984 14.5855 7.39017 14.5152C7.46049 14.4448 7.5 14.3495 7.5 14.25V9.75C7.5 9.65054 7.46049 9.55516 7.39017 9.48483C7.31984 9.41451 7.22446 9.375 7.125 9.375H5.25V8.25C5.25 8.04323 5.41823 7.875 5.625 7.875H11.625V9.40223C10.3546 9.58481 9.375 10.68 9.375 12C9.375 13.32 10.3546 14.4152 11.625 14.5978V16.125H5.625C5.41823 16.125 5.25 15.9568 5.25 15.75ZM18.75 13.875H17.25V10.125H18.75V13.875ZM18.75 8.25V9.375H16.875C16.7755 9.375 16.6802 9.41451 16.6098 9.48483C16.5395 9.55516 16.5 9.65054 16.5 9.75V14.25C16.5 14.3495 16.5395 14.4448 16.6098 14.5152C16.6802 14.5855 16.7755 14.625 16.875 14.625H18.75V15.75C18.75 15.9568 18.5818 16.125 18.375 16.125H12.375V14.5978C13.6454 14.4152 14.625 13.32 14.625 12C14.625 10.68 13.6454 9.58476 12.375 9.40223V7.875H18.375C18.5818 7.875 18.75 8.04323 18.75 8.25ZM19.6537 7.15012C19.9078 7.3357 20.1471 7.54074 20.3695 7.76339C20.4043 7.79834 20.4456 7.82607 20.4912 7.84497C20.5367 7.86386 20.5856 7.87356 20.6349 7.8735C20.709 7.8735 20.7815 7.85153 20.8432 7.81035C20.9048 7.76917 20.9529 7.71064 20.9813 7.64216C21.0097 7.57367 21.0172 7.49831 21.0027 7.42558C20.9883 7.35285 20.9527 7.28603 20.9003 7.23356C20.6504 6.98331 20.3814 6.75285 20.0957 6.54426C20.0154 6.48582 19.9151 6.46166 19.817 6.47708C19.7188 6.4925 19.6308 6.54624 19.5722 6.6265C19.5137 6.70676 19.4894 6.80698 19.5046 6.90515C19.5199 7.00333 19.5735 7.09143 19.6537 7.15012Z" fill="white"/>
<path d="M21.8504 8.4278C21.7969 8.34508 21.713 8.28674 21.6169 8.26537C21.5207 8.244 21.42 8.26132 21.3365 8.31359C21.253 8.36586 21.1934 8.44888 21.1706 8.54472C21.1478 8.64055 21.1637 8.74151 21.2147 8.82577C21.8102 9.77705 22.125 10.8747 22.125 12C22.125 15.3084 19.4334 18 16.125 18H7.875C4.56656 18 1.875 15.3084 1.875 12C1.875 8.69156 4.56656 6 7.875 6H16.125C16.9344 6 17.72 6.15914 18.4599 6.47297C18.4831 6.48281 18.5063 6.4928 18.5293 6.50292C18.6201 6.54104 18.7222 6.54195 18.8136 6.50545C18.905 6.46895 18.9785 6.39796 19.018 6.30781C19.0576 6.21766 19.0601 6.11558 19.025 6.02359C18.99 5.9316 18.9201 5.85708 18.8306 5.81611C18.8047 5.80475 18.7788 5.79356 18.7528 5.78255C17.9197 5.42916 17.0356 5.25 16.125 5.25H7.875C4.15303 5.25 1.125 8.27803 1.125 12C1.125 15.722 4.15303 18.75 7.875 18.75H16.125C19.847 18.75 22.875 15.722 22.875 12C22.875 10.7337 22.5207 9.49847 21.8504 8.4278Z" fill="white"/>
</svg>
